<svg version="1.1" id="Layer_1" xmlns="http://www.w3.org/2000/svg" xmlns:xlink="http://www.w3.org/1999/xlink" x="0px" y="0px"
	 width="100%" viewBox="0 0 225 225" enable-background="new 0 0 225 225" xml:space="preserve">
<path fill="#FFFFFF" opacity="1.000000" stroke="none" 
	d="
M1.000000,111.000000 
	C1.000000,74.000008 1.000000,37.500011 1.000000,1.000015 
	C75.999977,1.000010 150.999954,1.000010 225.999954,1.000005 
	C225.999969,75.999962 225.999969,150.999924 225.999985,225.999908 
	C151.000046,225.999939 76.000092,225.999939 1.000070,225.999969 
	C1.000000,187.833328 1.000000,149.666672 1.000000,111.000000 
M101.349747,197.647339 
	C101.349747,197.647339 101.426758,197.635651 101.262215,198.367050 
	C102.211090,198.888336 103.159966,199.409622 104.713684,200.190231 
	C106.477753,201.466599 108.241821,202.742966 110.456589,204.543884 
	C110.633606,200.140549 110.824593,195.737488 110.908234,191.332367 
	C110.910355,191.220520 109.731987,191.086243 108.950867,190.501648 
	C108.950867,190.501648 108.886932,190.020264 109.443275,189.856064 
	C109.676315,189.355576 109.909363,188.855072 110.644539,188.069656 
	C111.034897,187.666565 111.425255,187.263489 112.607224,186.878067 
	C113.658966,186.954254 114.710709,187.030441 116.246971,187.648132 
	C117.134964,187.588364 118.022949,187.528595 119.141098,188.576981 
	C119.313263,188.912582 119.485428,189.248199 119.074562,189.846634 
	C118.291939,190.506790 117.509323,191.166946 116.017967,192.069016 
	C115.747055,195.901123 115.416306,199.731339 115.294182,203.568192 
	C115.281425,203.969055 116.503044,204.409225 117.723343,204.661880 
	C118.757179,203.740616 119.791023,202.819351 121.587105,201.902954 
	C122.736969,200.626312 123.886841,199.349670 125.179375,197.565933 
	C125.468170,197.385040 125.756966,197.204147 126.796104,197.062958 
	C127.400803,196.254562 128.005508,195.446182 128.817139,194.833786 
	C128.817139,194.833786 128.653534,194.600403 129.370682,194.837387 
	C130.214676,193.851135 131.058685,192.864883 131.932175,191.897903 
	C131.932175,191.897903 131.892242,191.887283 132.665222,191.974075 
	C133.914001,191.750046 135.162781,191.526016 136.699371,191.250366 
	C137.704269,196.304749 138.667542,201.149643 139.662796,206.155518 
	C140.127441,205.426163 140.551025,204.761276 141.475800,204.111176 
	C141.637100,204.067398 141.798416,204.023636 142.709061,203.939850 
	C143.238861,202.817413 143.768646,201.694962 144.394165,200.409622 
	C144.394165,200.409622 144.499741,200.252914 145.160660,200.623291 
	C148.731949,197.534256 152.301163,194.351181 152.329102,189.151382 
	C152.374115,180.776810 152.200165,172.401031 151.968140,163.284698 
	C152.053864,162.539276 152.139572,161.793854 152.983627,160.834351 
	C153.307266,159.282547 154.015594,157.698456 153.888474,156.184494 
	C153.312332,149.322037 155.318924,143.173889 158.308655,137.132904 
	C159.369461,134.989395 159.546387,132.408463 160.141006,129.263794 
	C160.092255,128.509720 160.043488,127.755638 160.495895,126.628456 
	C158.083755,125.041641 155.671631,123.454826 153.097672,121.844902 
	C153.097672,121.844902 153.156616,121.692429 153.130157,120.962822 
	C151.172821,117.243835 149.209656,113.527916 147.262558,109.803581 
	C146.815674,108.948776 146.546112,107.970612 145.968552,107.224472 
	C145.505188,106.625862 144.699142,106.292503 143.363876,105.747185 
	C142.921005,105.865547 142.478149,105.983910 141.596008,105.568260 
	C141.068375,106.511673 140.113510,107.439293 140.078003,108.400879 
	C139.638123,120.308182 139.381851,132.222214 138.953430,144.130035 
	C138.857910,146.785034 138.278412,149.422623 137.921753,152.068222 
	C137.020721,140.670532 137.002625,129.376053 137.030075,118.081680 
	C137.040298,113.871330 136.686935,109.891815 131.730698,107.738815 
	C131.730698,107.738815 131.515488,107.385017 131.781860,106.577888 
	C131.050034,103.120354 130.318207,99.662819 129.588806,96.216812 
	C134.274399,95.817917 138.635880,95.446617 143.643188,95.041336 
	C144.073303,95.064392 144.503418,95.087456 145.227905,95.805840 
	C149.150848,95.893837 153.073792,95.981834 157.765167,96.100189 
	C158.786926,96.180717 159.808670,96.261246 161.101974,97.003616 
	C164.426788,97.645439 167.751587,98.287262 171.891556,98.994408 
	C176.920731,100.302971 181.949921,101.611542 187.335281,103.455498 
	C188.606979,103.307571 189.878677,103.159645 191.150360,103.011719 
	C191.207672,102.664543 191.264984,102.317375 191.322281,101.970200 
	C189.760590,101.132622 188.198883,100.295052 186.633163,99.375183 
	C186.633163,99.375183 186.552063,99.360664 186.807678,98.639992 
	C186.630920,98.187393 186.456116,97.734016 186.277069,97.282326 
	C184.520935,92.851944 179.072250,89.646317 181.745895,83.675598 
	C181.835831,83.474762 180.504852,82.637642 178.919662,82.126350 
	C164.291748,82.169937 149.663834,82.213524 135.163040,81.622726 
	C135.179840,81.407738 135.196655,81.192757 135.659332,80.489616 
	C134.054611,78.932182 132.449875,77.374741 130.976624,75.285614 
	C131.005493,74.923241 131.034363,74.560867 131.679611,74.009216 
	C132.103928,74.058434 132.528229,74.107643 133.172424,74.914116 
	C134.062042,75.235962 134.949997,75.833046 135.841522,75.838455 
	C149.659027,75.922234 163.477051,75.946548 177.294769,75.914459 
	C178.195236,75.912369 179.094391,75.341003 180.679871,75.026131 
	C181.739975,74.324005 182.800095,73.621880 184.518661,72.909325 
	C184.992798,72.265862 185.466934,71.622391 186.591431,70.813889 
	C187.692154,68.502655 188.792877,66.191414 189.586533,63.139160 
	C189.090103,62.958050 188.593674,62.776936 188.003647,62.019928 
	C186.097733,62.362064 184.201752,62.924168 182.284302,63.010773 
	C169.520035,63.587273 156.751175,64.062111 143.198608,64.601234 
	C146.638077,59.810226 145.570099,56.491123 140.946289,54.068798 
	C140.946289,54.068798 140.920654,54.082390 141.024887,53.344467 
	C139.953140,50.985783 140.390518,47.227589 135.372894,47.973156 
	C134.780289,48.208660 134.187668,48.444160 133.084854,48.220154 
	C132.516205,46.778564 131.947556,45.336975 131.351349,43.111198 
	C131.693802,40.462154 132.036255,37.813114 133.010895,35.089958 
	C133.033218,34.061909 133.055557,33.033863 133.116364,31.284883 
	C133.549881,29.915508 133.983398,28.546133 135.052811,26.966429 
	C135.200333,26.169268 135.347855,25.372107 135.991089,24.080429 
	C137.036270,22.553057 138.223389,21.098501 139.061478,19.464882 
	C139.431534,18.743572 139.093521,17.659000 138.811417,16.003801 
	C133.663422,15.731290 128.489883,15.028563 123.376122,15.332313 
	C119.759697,15.547121 119.052895,19.615747 121.774910,23.693531 
	C121.728615,24.094187 121.682320,24.494844 120.922791,25.157063 
	C120.644180,25.896685 120.147156,26.628345 120.119873,27.377125 
	C119.735291,37.930466 119.414589,48.486137 118.364578,59.014084 
	C117.655945,58.994236 116.947304,58.974384 115.974754,58.293640 
	C112.941154,53.247166 110.727791,58.437977 108.758812,58.893013 
	C107.898315,56.154354 107.078575,53.545429 106.074814,50.084595 
	C106.077675,48.050369 106.080544,46.016148 106.671013,43.394539 
	C106.751312,36.677956 107.048431,29.952904 106.786636,23.249683 
	C106.702408,21.093056 105.145058,18.993961 104.128479,16.917614 
	C104.128479,16.917614 104.109406,16.776985 103.861946,16.019325 
	C98.823875,15.698675 93.787102,15.206182 88.746910,15.168445 
	C87.345367,15.157950 85.256233,16.185551 84.742790,17.311556 
	C84.337746,18.199846 85.873940,19.966251 86.534660,21.349009 
	C88.050552,24.521492 89.673592,27.649288 91.037422,30.886118 
	C92.439919,34.214695 93.586273,37.651199 95.162415,41.643299 
	C95.324516,43.219704 95.486626,44.796112 94.815971,46.213245 
	C94.182045,46.992607 93.548111,47.771969 92.262054,48.362976 
	C91.272789,48.633705 90.283524,48.904434 88.599693,49.102306 
	C88.144272,50.086323 87.688850,51.070339 87.026642,52.703629 
	C85.723495,54.495159 84.420349,56.286690 82.430710,58.083931 
	C82.365486,59.982349 82.300255,61.880768 82.028854,63.980812 
	C82.028854,63.980812 81.829758,64.189430 80.914528,64.201637 
	C71.256897,64.193901 61.597031,64.304260 51.942711,64.121567 
	C47.959126,64.046173 43.987453,63.341454 39.247021,62.864433 
	C38.488659,62.876556 37.730297,62.888680 36.689163,62.450989 
	C36.291378,62.540073 35.893589,62.629154 35.495804,62.718235 
	C35.970501,63.160542 36.445202,63.602852 37.001858,64.025337 
	C37.001858,64.025337 36.943829,64.086517 36.894588,64.844032 
	C38.935192,67.558846 40.975792,70.273659 42.999878,73.000153 
	C42.999878,73.000153 43.012184,72.984200 42.961994,73.820457 
	C44.199905,74.549728 45.432133,75.901299 46.676598,75.912659 
	C60.130779,76.035454 73.587814,76.017670 87.041481,75.841293 
	C89.051788,75.814941 91.048782,74.773918 93.754005,74.029198 
	C94.857758,74.313217 95.961502,74.597229 96.953629,75.550659 
	C95.917068,76.562317 94.880516,77.573982 93.315475,78.948494 
	C92.548195,79.925873 91.780922,80.903252 90.366631,81.862305 
	C89.938309,81.831284 89.509987,81.800270 88.831291,81.031593 
	C83.527313,81.278191 78.223335,81.524788 71.997353,81.872353 
	C64.844986,81.948662 57.689701,81.937813 50.542751,82.176476 
	C49.151524,82.222931 47.792702,83.239944 45.879616,84.071892 
	C45.016590,87.031731 44.151543,89.990982 43.291439,92.951668 
	C42.890854,94.330574 42.499855,95.712250 42.001385,97.000252 
	C42.001385,97.000252 42.099697,97.097466 41.431572,97.091354 
	C40.906631,97.984520 40.381695,98.877686 39.545532,100.186676 
	C39.290375,100.419792 39.035213,100.652908 38.137959,100.994194 
	C37.790390,101.913094 37.442822,102.832001 36.897099,104.274788 
	C38.793129,103.969307 39.958782,103.944992 41.010902,103.586998 
	C53.124828,99.465202 65.515137,96.916695 78.353287,96.674988 
	C79.274132,96.657654 80.177246,95.697845 81.818336,95.090027 
	C82.552498,95.097717 83.286667,95.105415 84.619606,95.667023 
	C88.548790,95.667023 92.477966,95.667023 97.484955,95.667023 
	C95.611069,101.391228 94.039742,106.191216 91.803497,111.129852 
	C90.907211,113.374115 89.742920,115.553047 89.176247,117.877663 
	C88.283897,121.538231 90.886833,125.864243 87.014824,128.066528 
	C86.847198,121.360565 86.822380,114.644829 86.364929,107.958694 
	C86.292542,106.900742 84.268028,105.976349 83.146072,104.990211 
	C82.642517,106.199051 82.138954,107.407890 81.565231,109.133644 
	C81.382179,109.424736 81.199127,109.715820 80.344925,110.064560 
	C78.715523,113.229591 77.086121,116.394623 75.282761,120.060478 
	C74.904312,120.404213 74.525856,120.747948 73.426926,121.011086 
	C63.802090,127.093895 63.819008,127.085861 68.482681,136.909073 
	C69.183121,138.384415 69.485435,140.062881 70.282593,141.471573 
	C70.620911,142.069412 71.760826,142.213623 72.623444,143.238403 
	C72.407280,143.306595 72.191109,143.374771 71.832146,143.842438 
	C71.877388,143.993164 71.922638,144.143875 71.967880,144.294601 
	C71.971664,144.017044 71.975449,143.739471 72.774643,143.418350 
	C73.137810,144.620911 73.500977,145.823486 73.276894,147.611588 
	C73.563843,159.379379 73.822487,171.148087 74.205322,182.912766 
	C74.229279,183.648849 75.225555,184.353287 75.935326,185.690155 
	C75.916473,186.114517 75.897621,186.538879 75.260284,187.070175 
	C75.787849,188.739594 76.315422,190.409012 77.324509,192.413925 
	C77.693336,193.100311 78.062164,193.786713 78.205482,195.241241 
	C80.162949,197.811752 82.120415,200.382248 84.605057,203.216339 
	C85.070213,203.478424 85.535370,203.740509 86.387810,204.486755 
	C89.041069,201.173416 89.805481,192.104309 87.574638,187.063843 
	C87.616997,185.736374 87.659355,184.408890 88.338112,183.044342 
	C89.548141,182.030899 90.758163,181.017456 92.123886,180.639053 
	C92.458282,181.379837 92.792671,182.120621 93.023079,183.677399 
	C92.984314,186.542984 90.086395,189.674774 94.049706,192.832153 
	C95.798744,193.773438 97.547791,194.714722 99.166534,195.865997 
	C99.166534,195.865997 99.340981,195.690948 99.220497,196.414200 
	C99.930855,196.799286 100.641212,197.184372 101.349747,197.647339 
M112.748215,51.142197 
	C113.485092,51.035027 114.221962,50.927860 115.395905,51.336884 
	C115.869476,51.052135 116.754684,50.770737 116.757034,50.482147 
	C116.838120,40.514759 116.968994,30.542711 116.671005,20.583946 
	C116.635155,19.385639 114.211052,18.258795 112.893875,17.098829 
	C111.949425,18.463116 110.227951,19.804741 110.187401,21.195389 
	C109.935585,29.830261 109.979736,38.477715 110.148148,47.116657 
	C110.173569,48.420391 111.361717,49.701450 112.748215,51.142197 
M114.504799,53.443974 
	C114.504799,53.443974 114.536621,53.509533 114.504799,53.443974 
z"/>
<path fill="#323138" opacity="1.000000" stroke="none" 
	d="
M159.994720,127.001556 
	C160.043488,127.755638 160.092255,128.509720 159.857666,129.859924 
	C154.501068,140.023254 150.316315,149.803909 152.225311,161.048431 
	C152.139572,161.793854 152.053864,162.539276 151.819458,163.995148 
	C151.528824,166.678589 151.317886,168.649429 151.256531,170.624908 
	C150.936066,180.944809 151.689865,191.501831 144.499741,200.252914 
	C144.499741,200.252914 144.394165,200.409622 144.093964,200.652176 
	C143.182404,201.923096 142.571060,202.951477 141.959717,203.979858 
	C141.798416,204.023636 141.637100,204.067398 141.173859,203.662125 
	C140.312973,198.928177 139.369888,194.650894 139.284912,190.356613 
	C139.156815,183.882263 139.626236,177.395996 139.845016,170.914902 
	C140.574295,149.310669 141.305084,127.706474 142.035278,106.102272 
	C142.478149,105.983910 142.921005,105.865547 143.743774,106.170181 
	C147.134644,111.626259 150.145630,116.659348 153.156616,121.692429 
	C153.156616,121.692429 153.097672,121.844902 153.193619,122.192429 
	C155.524628,124.027153 157.759674,125.514359 159.994720,127.001556 
z"/>
<path fill="#313037" opacity="1.000000" stroke="none" 
	d="
M73.864136,147.026047 
	C73.500977,145.823486 73.137810,144.620911 72.345871,143.470184 
	C71.917099,143.522018 71.974937,143.442963 71.974937,143.442963 
	C72.191109,143.374771 72.407280,143.306595 72.547867,142.535217 
	C71.318550,139.260757 70.320732,136.604385 68.975060,134.137817 
	C66.879753,130.297150 65.637161,126.982170 71.145233,124.807808 
	C72.434097,124.299019 73.161613,122.368225 74.147400,121.091675 
	C74.525856,120.747948 74.904312,120.404213 75.679672,119.666229 
	C77.723076,116.183617 79.369576,113.095261 81.016068,110.006912 
	C81.199127,109.715820 81.382179,109.424736 81.868515,108.637642 
	C82.665604,107.423225 83.159416,106.704811 84.523651,104.720100 
	C85.086121,113.778778 85.558563,121.387596 85.960129,129.460800 
	C86.101028,136.588440 86.312798,143.251694 86.407333,150.309540 
	C86.413559,151.501999 86.537010,152.299866 86.577621,153.397644 
	C86.568962,154.099838 86.643143,154.502121 86.564453,155.307510 
	C86.618698,158.137222 86.825813,160.563812 86.971863,163.456177 
	C87.174446,170.308456 87.438087,176.694931 87.701721,183.081421 
	C87.659355,184.408890 87.616997,185.736374 87.496078,187.884827 
	C86.945190,193.804733 86.472862,198.903656 86.000534,204.002579 
	C85.535370,203.740509 85.070213,203.478424 84.268494,202.746460 
	C82.098282,199.675415 80.264641,197.074265 78.430992,194.473099 
	C78.062164,193.786713 77.693336,193.100311 77.099686,191.868073 
	C76.542839,189.869232 76.210808,188.416245 75.878769,186.963242 
	C75.897621,186.538879 75.916473,186.114517 75.995445,184.926956 
	C75.895157,179.184174 75.855293,174.197067 75.546021,169.226761 
	C75.085175,161.820312 74.434204,154.425690 73.864136,147.026047 
z"/>
<path fill="#2E2E35" opacity="1.000000" stroke="none" 
	d="
M131.515488,107.385017 
	C131.515488,107.385017 131.730698,107.738815 131.884613,108.237724 
	C135.542542,112.807228 135.560028,117.632874 135.433304,122.667419 
	C135.183823,132.579971 135.363205,142.502716 135.210495,152.418854 
	C135.181580,154.297226 134.435944,156.164551 133.669785,158.059174 
	C130.974808,160.710800 128.631042,163.340210 126.124237,166.347885 
	C125.235298,167.105011 124.509392,167.483902 123.571747,167.791077 
	C123.360008,167.719376 122.914780,167.760376 122.704239,167.543976 
	C122.351524,167.185059 122.209358,167.042572 121.933090,166.506088 
	C121.449463,158.756393 121.099953,151.400665 120.836777,143.653534 
	C120.794563,141.400269 121.939270,138.742355 118.018433,139.168243 
	C117.186279,139.839417 116.639687,140.415375 115.972061,140.536621 
	C115.961342,128.446014 116.071663,116.810120 116.405670,104.752113 
	C116.577141,101.169106 116.524933,98.008217 116.584038,94.533264 
	C117.108017,93.746773 117.520683,93.274345 118.279137,92.790703 
	C119.202866,92.491913 119.780800,92.204338 120.204453,92.333649 
	C120.397621,96.825912 120.914452,100.895538 121.053314,104.978020 
	C121.268135,111.293915 121.224785,117.618584 121.271187,124.247749 
	C122.193291,124.378044 123.135124,124.200127 124.149284,123.556641 
	C124.234131,114.181351 124.246658,105.271637 124.629662,96.222092 
	C126.139145,97.029129 127.724358,97.754753 128.325928,98.968071 
	C129.652313,101.643227 130.482712,104.564293 131.515488,107.385017 
z"/>
<path fill="#2D2E34" opacity="1.000000" stroke="none" 
	d="
M160.830429,96.341774 
	C159.808670,96.261246 158.786926,96.180717 157.071335,95.817146 
	C152.562851,95.392906 148.748184,95.251709 144.933533,95.110512 
	C144.503418,95.087456 144.073303,95.064392 142.976837,94.839340 
	C136.228745,94.384911 130.147003,94.132484 124.052513,93.574364 
	C124.077385,92.863403 124.115021,92.458130 124.450455,91.907013 
	C128.177475,88.593147 131.606705,85.425133 135.035919,82.257118 
	C149.663834,82.213524 164.291748,82.169937 179.442780,82.474403 
	C179.299637,83.824692 178.633392,84.826927 177.645493,85.579819 
	C170.546295,85.246140 163.768799,85.103119 156.991150,85.094116 
	C150.346695,85.085297 143.680878,84.941193 137.047073,85.146629 
	C137.070312,86.111603 137.093552,87.076576 137.116791,88.041550 
	C142.413589,88.041550 147.710373,88.041550 153.043579,88.335464 
	C153.483490,88.943222 153.887024,89.257065 154.290543,89.570915 
	C154.524124,89.064651 154.757706,88.558388 155.457123,87.990379 
	C163.294281,87.987076 170.665619,88.045525 178.188477,88.319778 
	C178.663895,88.660820 178.987762,88.786041 179.515137,89.182144 
	C181.996429,92.755577 184.274246,96.058121 186.552063,99.360664 
	C186.552063,99.360664 186.633163,99.375183 186.808990,99.758461 
	C186.982895,101.067863 186.981003,101.993988 186.979095,102.920113 
	C181.949921,101.611542 176.920731,100.302971 171.342438,98.612869 
	C167.472366,97.601471 164.151398,96.971626 160.830429,96.341774 
z"/>
<path fill="#302F36" opacity="1.000000" stroke="none" 
	d="
M95.648735,46.372517 
	C95.486626,44.796112 95.324516,43.219704 95.128906,40.932728 
	C94.769058,31.842585 92.736786,24.041410 85.946526,16.776985 
	C92.930771,16.776985 98.520088,16.776985 104.109406,16.776985 
	C104.109406,16.776985 104.128479,16.917614 104.211067,17.324724 
	C104.890236,26.481863 105.486824,35.231892 106.083405,43.981922 
	C106.080544,46.016148 106.077675,48.050369 106.045517,50.967957 
	C105.628540,57.478275 105.240860,63.105228 104.491455,68.718460 
	C102.072586,67.176872 99.902153,65.773392 98.017113,64.056564 
	C97.316971,63.418907 97.285652,62.046902 97.015839,60.584953 
	C96.913719,57.431953 96.745102,54.703777 96.513733,51.531792 
	C95.980721,50.862991 95.510468,50.637997 95.084717,50.407154 
	C95.129219,50.401306 95.201691,50.348354 95.507027,50.197598 
	C95.757820,48.822067 95.703278,47.597290 95.648735,46.372517 
z"/>
<path fill="#2F2F35" opacity="1.000000" stroke="none" 
	d="
M121.636017,24.895500 
	C121.682320,24.494844 121.728615,24.094187 121.882935,22.989796 
	C122.236443,20.539591 122.481941,18.793119 122.770630,16.739344 
	C128.516464,16.739344 133.796707,16.739344 139.076965,16.739344 
	C139.093521,17.659000 139.431534,18.743572 139.061478,19.464882 
	C138.223389,21.098501 137.036270,22.553057 135.487823,24.498203 
	C134.795349,25.669569 134.606125,26.423161 134.416901,27.176754 
	C133.983398,28.546133 133.549881,29.915508 132.842621,31.881145 
	C132.505493,33.372963 132.442108,34.268517 132.378723,35.164070 
	C132.036255,37.813114 131.693802,40.462154 131.184555,43.937019 
	C130.736404,47.842037 130.455048,50.921227 130.054901,54.311737 
	C129.943008,57.084511 129.949936,59.545971 129.799683,62.328201 
	C126.839668,64.320656 124.036858,65.992340 121.172318,67.387390 
	C120.956169,66.766258 120.801735,66.421753 120.726921,65.609627 
	C121.083031,51.726498 121.359528,38.311001 121.636017,24.895500 
z"/>
<path fill="#D9D9DC" opacity="1.000000" stroke="none" 
	d="
M134.020996,158.036972 
	C134.435944,156.164551 135.181580,154.297226 135.210495,152.418854 
	C135.363205,142.502716 135.183823,132.579971 135.433304,122.667419 
	C135.560028,117.632874 135.542542,112.807228 132.051971,108.359650 
	C136.686935,109.891815 137.040298,113.871330 137.030075,118.081680 
	C137.002625,129.376053 137.020721,140.670532 137.921753,152.068222 
	C138.278412,149.422623 138.857910,146.785034 138.953430,144.130035 
	C139.381851,132.222214 139.638123,120.308182 140.078003,108.400879 
	C140.113510,107.439293 141.068375,106.511673 141.815643,105.835266 
	C141.305084,127.706474 140.574295,149.310669 139.845016,170.914902 
	C139.626236,177.395996 139.156815,183.882263 139.284912,190.356613 
	C139.369888,194.650894 140.312973,198.928177 140.923279,203.654724 
	C140.551025,204.761276 140.127441,205.426163 139.662796,206.155518 
	C138.667542,201.149643 137.704269,196.304749 136.699371,191.250366 
	C135.162781,191.526016 133.914001,191.750046 132.377289,191.590515 
	C132.453140,189.936340 132.816925,188.665710 133.389648,186.665268 
	C131.758484,187.388367 130.938583,187.751816 129.895264,187.927338 
	C129.472992,187.201126 129.274139,186.662842 129.219666,185.788269 
	C130.519348,184.570709 132.057343,183.912247 132.733017,182.751740 
	C133.575882,181.304047 134.599426,178.842361 130.665558,179.742462 
	C130.249237,178.945694 130.069382,178.352768 130.047607,177.466431 
	C131.456131,175.138397 132.706573,173.103790 133.861206,170.688232 
	C133.463028,169.592499 133.160660,168.877716 133.121552,167.929565 
	C133.626312,165.378052 133.867828,163.059921 134.107666,160.403107 
	C134.077652,159.388611 134.049332,158.712799 134.020996,158.036972 
z"/>
<path fill="#323137" opacity="1.000000" stroke="none" 
	d="
M183.860229,72.919754 
	C182.800095,73.621880 181.739975,74.324005 180.023895,74.756546 
	C163.896133,74.376930 148.424332,74.266899 132.952545,74.156860 
	C132.528229,74.107643 132.103928,74.058434 131.067963,74.007828 
	C129.987427,74.404785 129.518570,74.803146 128.719849,75.196472 
	C127.749947,75.037254 127.109886,74.883072 126.346230,74.433998 
	C125.549065,73.639000 124.875481,73.138885 124.129807,72.362762 
	C123.987236,71.715950 123.916771,71.345139 124.157593,70.814995 
	C127.358643,69.017044 130.206345,66.059258 133.145386,65.965546 
	C146.697571,65.533409 160.283356,66.194092 173.839325,65.819748 
	C178.617996,65.687790 183.346069,63.723511 188.097244,62.595825 
	C188.593674,62.776936 189.090103,62.958050 189.416168,63.711361 
	C187.824570,66.520630 186.403305,68.757690 184.740662,71.168259 
	C184.286255,71.867767 184.073242,72.393768 183.860229,72.919754 
z"/>
<path fill="#323137" opacity="1.000000" stroke="none" 
	d="
M97.065254,74.881256 
	C95.961502,74.597229 94.857758,74.313217 92.952744,73.960594 
	C76.978394,74.125565 61.805622,74.396683 46.631653,74.520752 
	C45.429428,74.530586 44.218868,73.520370 43.012184,72.984200 
	C43.012184,72.984200 42.999878,73.000153 42.973045,72.648773 
	C40.945415,69.560432 38.944622,66.823479 36.943829,64.086517 
	C36.943829,64.086517 37.001858,64.025337 36.994522,63.750103 
	C36.982101,63.283512 36.977020,63.092159 36.971935,62.900803 
	C37.730297,62.888680 38.488659,62.876556 39.841751,63.196609 
	C45.635674,64.361122 50.813911,65.699821 56.038601,65.916023 
	C65.685120,66.315201 75.373917,66.390198 85.016159,65.956734 
	C91.724289,65.655174 97.827301,66.302658 102.902786,71.349594 
	C100.913651,72.754471 98.989456,73.817863 97.065254,74.881256 
z"/>
<path fill="#EAEBEC" opacity="1.000000" stroke="none" 
	d="
M86.524567,149.914948 
	C86.312798,143.251694 86.101028,136.588440 86.220078,129.475494 
	C86.724289,129.018021 86.897690,129.010269 87.071083,129.002518 
	C90.886833,125.864243 88.283897,121.538231 89.176247,117.877663 
	C89.742920,115.553047 90.907211,113.374115 92.320862,111.127007 
	C92.838219,111.124161 93.221642,111.044701 93.065216,111.396133 
	C92.326927,113.733612 91.263374,115.715134 91.244644,117.706482 
	C91.152344,127.522682 91.087311,137.352844 91.533546,147.154358 
	C91.743454,151.764954 93.124458,156.322266 93.696259,160.952179 
	C93.305977,161.327515 93.194206,161.654388 93.004372,162.317596 
	C92.989105,163.106506 93.051910,163.559082 93.054024,164.392670 
	C93.413513,165.508514 93.833694,166.243362 94.188965,167.066589 
	C94.124062,167.154938 94.124992,167.374207 94.164627,167.535522 
	C94.204269,167.696854 94.455376,167.937103 94.242020,168.154846 
	C94.001953,169.178116 93.975235,169.983643 93.633987,170.968689 
	C94.563446,173.430496 95.807426,175.712784 96.758011,178.007019 
	C96.270401,178.043518 96.076187,178.068100 95.545898,178.057190 
	C94.129280,178.682449 93.048737,179.343231 91.968193,180.004028 
	C90.758163,181.017456 89.548141,182.030899 88.019913,183.062881 
	C87.438087,176.694931 87.174446,170.308456 87.249924,163.195862 
	C87.298470,159.947983 87.007896,157.426178 86.717323,154.904388 
	C86.643143,154.502121 86.568962,154.099838 86.838669,153.298645 
	C86.963226,151.904800 86.743896,150.909882 86.524567,149.914948 
z"/>
<path fill="#2F2F35" opacity="1.000000" stroke="none" 
	d="
M38.780056,100.886017 
	C39.035213,100.652908 39.290375,100.419792 40.010468,99.931396 
	C41.016830,98.816574 41.558266,97.957016 42.099697,97.097466 
	C42.099697,97.097466 42.001385,97.000252 42.379662,96.941223 
	C44.517796,93.970764 46.277649,91.059341 48.144783,88.292526 
	C48.502838,88.285645 48.753613,88.134148 49.465607,87.893967 
	C56.279118,87.835854 62.631401,87.866432 69.043655,88.264709 
	C70.402237,89.087463 71.700859,89.542511 73.276726,90.287239 
	C77.207390,91.818649 80.860802,93.060379 84.358612,94.485237 
	C84.203011,94.668358 84.020828,95.113106 84.020828,95.113106 
	C83.286667,95.105415 82.552498,95.097717 81.003448,95.004105 
	C67.676399,95.233086 55.417770,97.024696 43.484116,100.940651 
	C42.073917,101.403397 40.355564,100.927048 38.780056,100.886017 
z"/>
<path fill="#2A2B31" opacity="1.000000" stroke="none" 
	d="
M84.514221,94.302116 
	C80.860802,93.060379 77.207390,91.818649 73.277573,89.936462 
	C73.003502,88.828026 73.005821,88.360054 73.418854,87.785919 
	C78.874908,87.431770 83.920250,87.183792 89.217682,86.905762 
	C89.377724,86.514671 89.285667,86.153648 88.825195,85.584923 
	C76.058083,85.364998 63.658772,85.408302 51.261410,85.272949 
	C49.642117,85.255264 48.032845,84.319702 46.418934,83.809280 
	C47.792702,83.239944 49.151524,82.222931 50.542751,82.176476 
	C57.689701,81.937813 64.844986,81.948662 72.912712,81.962166 
	C78.912605,81.957741 83.997131,81.863495 89.081665,81.769249 
	C89.509987,81.800270 89.938309,81.831284 90.860413,82.156693 
	C92.910561,83.941376 94.466934,85.431664 96.112122,87.168701 
	C96.486450,87.602722 96.771980,87.789993 97.060234,88.339722 
	C98.301804,90.012535 99.540642,91.322884 101.874176,93.791130 
	C95.270760,93.985497 89.892494,94.143806 84.514221,94.302116 
z"/>
<path fill="#CACACE" opacity="1.000000" stroke="none" 
	d="
M188.050446,62.307877 
	C183.346069,63.723511 178.617996,65.687790 173.839325,65.819748 
	C160.283356,66.194092 146.697571,65.533409 133.145386,65.965546 
	C130.206345,66.059258 127.358643,69.017044 123.813797,70.778030 
	C122.517166,69.821602 121.875603,68.742813 121.234047,67.664024 
	C124.036858,65.992340 126.839668,64.320656 130.270630,62.204567 
	C131.199890,61.638905 131.500992,61.517651 131.955017,61.741528 
	C136.116623,62.086655 140.125290,62.086655 145.144150,62.086655 
	C143.184875,58.376247 142.049637,56.226402 140.914413,54.076553 
	C145.570099,56.491123 146.638077,59.810226 143.198608,64.601234 
	C156.751175,64.062111 169.520035,63.587273 182.284302,63.010773 
	C184.201752,62.924168 186.097733,62.362064 188.050446,62.307877 
z"/>
<path fill="#BEBEC3" opacity="1.000000" stroke="none" 
	d="
M102.967720,71.008095 
	C97.827301,66.302658 91.724289,65.655174 85.016159,65.956734 
	C75.373917,66.390198 65.685120,66.315201 56.038601,65.916023 
	C50.813911,65.699821 45.635674,64.361122 40.223419,63.225872 
	C43.987453,63.341454 47.959126,64.046173 51.942711,64.121567 
	C61.597031,64.304260 71.256897,64.193901 81.490158,64.344727 
	C82.272194,64.444649 82.478600,64.401474 82.685005,64.358307 
	C82.535019,64.165268 82.385025,63.972225 82.235031,63.779182 
	C82.300255,61.880768 82.365486,59.982349 82.775375,58.476894 
	C84.905495,63.015030 90.664764,64.046204 95.282028,60.988655 
	C96.060196,60.996346 96.504768,61.003059 96.949333,61.009773 
	C97.285652,62.046902 97.316971,63.418907 98.017113,64.056564 
	C99.902153,65.773392 102.072586,67.176872 104.495941,69.063042 
	C104.230675,69.950264 103.599197,70.479179 102.967720,71.008095 
z"/>
<path fill="#D4D3D8" opacity="1.000000" stroke="none" 
	d="
M102.902786,71.349594 
	C103.599197,70.479179 104.230675,69.950264 104.857658,69.076767 
	C105.240860,63.105228 105.628540,57.478275 106.137527,51.393909 
	C107.078575,53.545429 107.898315,56.154354 108.758812,58.893013 
	C110.727791,58.437977 112.941154,53.247166 115.927063,58.743057 
	C115.879372,59.192478 115.482918,59.352158 115.165054,59.229298 
	C111.056564,57.729877 111.013565,60.044659 111.052185,62.777271 
	C111.114784,67.206963 110.965660,71.242432 107.618042,75.193314 
	C103.627945,79.902458 98.922073,78.981461 94.050743,79.020477 
	C93.988342,78.872520 93.843956,78.585640 93.843956,78.585640 
	C94.880516,77.573982 95.917068,76.562317 97.009445,75.215958 
	C98.989456,73.817863 100.913651,72.754471 102.902786,71.349594 
z"/>
<path fill="#CECDD2" opacity="1.000000" stroke="none" 
	d="
M112.012024,50.992996 
	C111.361717,49.701450 110.173569,48.420391 110.148148,47.116657 
	C109.979736,38.477715 109.935585,29.830261 110.187401,21.195389 
	C110.227951,19.804741 111.949425,18.463116 112.893875,17.098827 
	C114.211052,18.258795 116.635155,19.385639 116.671005,20.583946 
	C116.968994,30.542711 116.838120,40.514759 116.757034,50.482147 
	C116.754684,50.770737 115.869476,51.052135 115.161758,50.622234 
	C114.965172,40.627243 115.049736,31.346527 114.975533,22.067078 
	C114.967094,21.012474 114.066673,19.965002 113.579849,18.914225 
	C112.990059,19.997505 111.897011,21.077196 111.889259,22.164631 
	C111.820702,31.773304 111.944839,41.383354 112.012024,50.992996 
z"/>
<path fill="#B3B3B8" opacity="1.000000" stroke="none" 
	d="
M88.965584,86.935814 
	C83.920250,87.183792 78.874908,87.431770 73.020340,87.712463 
	C71.135307,87.795776 70.059494,87.846390 68.983688,87.897003 
	C62.631401,87.866432 56.279118,87.835854 49.210556,87.857285 
	C48.342022,87.988831 48.189762,88.068375 48.037502,88.147919 
	C46.277649,91.059341 44.517796,93.970764 42.431229,96.987427 
	C42.499855,95.712250 42.890854,94.330574 43.291439,92.951668 
	C44.151543,89.990982 45.016590,87.031731 46.149277,83.940582 
	C48.032845,84.319702 49.642117,85.255264 51.261410,85.272949 
	C63.658772,85.408302 76.058083,85.364998 88.749969,85.867645 
	C89.017288,86.550652 88.991432,86.743233 88.965584,86.935814 
z"/>
<path fill="#343339" opacity="1.000000" stroke="none" 
	d="
M140.930359,54.072678 
	C142.049637,56.226402 143.184875,58.376247 145.144150,62.086655 
	C140.125290,62.086655 136.116623,62.086655 132.011566,61.408371 
	C132.009338,58.508667 132.103485,56.287243 132.338379,53.741913 
	C132.851105,51.838551 133.223083,50.259106 133.595062,48.679665 
	C134.187668,48.444160 134.780289,48.208660 135.863876,48.238861 
	C137.876801,50.363842 139.398727,52.223114 140.920654,54.082390 
	C140.920654,54.082390 140.946289,54.068798 140.930359,54.072678 
z"/>
<path fill="#35343B" opacity="1.000000" stroke="none" 
	d="
M94.948410,60.987679 
	C90.664764,64.046204 84.905495,63.015030 83.118622,58.474037 
	C84.420349,56.286690 85.723495,54.495159 87.419113,52.266823 
	C88.305809,50.945065 88.800034,50.060112 89.294258,49.175159 
	C90.283524,48.904434 91.272789,48.633705 92.664085,48.671677 
	C93.359642,49.327991 93.653160,49.675610 93.931549,50.455498 
	C94.260414,54.254406 94.604416,57.621044 94.948410,60.987679 
z"/>
<path fill="#F0F0F4" opacity="1.000000" stroke="none" 
	d="
M121.172318,67.387390 
	C121.875603,68.742813 122.517166,69.821602 123.502518,70.937363 
	C123.916771,71.345139 123.987236,71.715950 124.121262,72.744507 
	C124.946480,73.844460 125.708153,74.286674 126.469818,74.728882 
	C127.109886,74.883072 127.749947,75.037254 128.871216,75.405991 
	C129.849991,75.686119 130.347580,75.751709 130.845154,75.817307 
	C132.449875,77.374741 134.054611,78.932182 135.153046,80.717346 
	C134.278152,80.955124 133.909561,80.965179 133.341095,80.550499 
	C131.163910,80.076538 129.153717,80.228722 127.219749,79.913467 
	C125.710594,79.667450 124.296135,78.840630 122.866257,77.918579 
	C122.214989,77.069000 121.537056,76.572731 120.590637,75.937714 
	C119.529976,74.897560 118.737808,73.996170 117.972931,72.706474 
	C117.415794,70.858871 116.831360,69.399559 116.131927,67.514587 
	C115.838928,64.510002 115.660919,61.931080 115.482918,59.352158 
	C115.482918,59.352158 115.879372,59.192478 116.059021,59.073509 
	C116.947304,58.974384 117.655945,58.994236 118.717850,59.435883 
	C119.596519,61.930874 120.121910,64.004066 120.647308,66.077255 
	C120.801735,66.421753 120.956169,66.766258 121.172318,67.387390 
z"/>
<path fill="#B3B3B8" opacity="1.000000" stroke="none" 
	d="
M84.358612,94.485237 
	C89.892494,94.143806 95.270760,93.985497 101.874176,93.791130 
	C99.540642,91.322884 98.301804,90.012535 97.401520,88.368851 
	C98.843849,87.731926 99.935692,87.272560 101.056168,87.186668 
	C101.669052,87.139687 102.330353,87.724174 102.746552,88.194901 
	C103.019302,88.909439 103.515320,89.452980 104.005363,89.998550 
	C103.999390,90.000572 104.003929,89.988647 104.010925,90.364182 
	C105.336357,91.824104 106.654793,92.908493 107.902832,94.282959 
	C107.277725,95.063721 106.723015,95.554405 106.070938,96.276962 
	C105.993538,96.675301 106.013504,96.841766 105.923096,97.002075 
	C105.812737,96.995926 105.596191,96.951416 105.289940,96.964447 
	C104.169968,97.008675 103.356247,97.039871 102.303162,96.731720 
	C98.927078,95.000977 98.771973,97.291855 98.023300,99.380394 
	C96.605988,103.334183 94.841751,107.163612 93.221649,111.044701 
	C93.221642,111.044701 92.838219,111.124161 92.653313,111.057678 
	C94.039742,106.191216 95.611069,101.391228 97.484955,95.667023 
	C92.477966,95.667023 88.548790,95.667023 84.320221,95.390060 
	C84.020828,95.113106 84.203011,94.668358 84.358612,94.485237 
z"/>
<path fill="#D4D3D8" opacity="1.000000" stroke="none" 
	d="
M42.987091,73.402328 
	C44.218868,73.520370 45.429428,74.530586 46.631653,74.520752 
	C61.805622,74.396683 76.978394,74.125565 92.601707,74.047142 
	C91.048782,74.773918 89.051788,75.814941 87.041481,75.841293 
	C73.587814,76.017670 60.130779,76.035454 46.676598,75.912659 
	C45.432133,75.901299 44.199905,74.549728 42.987091,73.402328 
z"/>
<path fill="#D4D3D8" opacity="1.000000" stroke="none" 
	d="
M103.985672,16.398155 
	C98.520088,16.776985 92.930771,16.776985 85.946526,16.776985 
	C92.736786,24.041410 94.769058,31.842585 94.970055,40.631317 
	C93.586273,37.651199 92.439919,34.214695 91.037422,30.886118 
	C89.673592,27.649288 88.050552,24.521492 86.534660,21.349009 
	C85.873940,19.966251 84.337746,18.199846 84.742790,17.311556 
	C85.256233,16.185551 87.345367,15.157950 88.746910,15.168445 
	C93.787102,15.206182 98.823875,15.698675 103.985672,16.398155 
z"/>
<path fill="#35343B" opacity="1.000000" stroke="none" 
	d="
M133.957016,171.069183 
	C132.706573,173.103790 131.456131,175.138397 129.741547,177.602783 
	C127.440384,179.691376 125.603363,181.350204 123.426437,183.439972 
	C123.398140,184.422852 123.709747,184.974823 124.010635,185.513397 
	C123.999908,185.500000 124.026672,185.521378 123.884377,185.227997 
	C122.843559,185.112839 121.945038,185.291077 120.762344,185.588593 
	C119.955757,186.294846 119.433350,186.881836 118.910942,187.468826 
	C118.022949,187.528595 117.134964,187.588364 116.033203,186.990631 
	C115.411293,184.361160 112.887863,182.233398 116.577118,180.585388 
	C119.235832,179.903259 121.807434,179.579330 123.837425,178.356384 
	C127.386063,176.218521 130.601791,173.528076 133.957016,171.069183 
z"/>
<path fill="#BEBEC3" opacity="1.000000" stroke="none" 
	d="
M133.540955,80.975235 
	C133.909561,80.965179 134.278152,80.955124 134.930115,80.961426 
	C135.196655,81.192757 135.179840,81.407738 135.099487,81.939926 
	C131.606705,85.425133 128.177475,88.593147 124.070267,91.890190 
	C122.381104,91.985069 121.369926,91.950912 120.358742,91.916763 
	C119.780800,92.204338 119.202866,92.491913 118.226746,92.462471 
	C117.131119,91.694588 116.433678,91.243729 115.867371,90.478104 
	C119.519341,86.584793 123.245865,83.529556 128.643234,83.152512 
	C130.318329,83.035500 131.910706,81.734299 133.540955,80.975235 
z"/>
<path fill="#323137" opacity="1.000000" stroke="none" 
	d="
M112.380119,51.067596 
	C111.944839,41.383354 111.820702,31.773304 111.889259,22.164631 
	C111.897011,21.077196 112.990059,19.997505 113.579849,18.914225 
	C114.066673,19.965002 114.967094,21.012474 114.975533,22.067078 
	C115.049736,31.346527 114.965172,40.627243 114.943222,50.364136 
	C114.221962,50.927860 113.485092,51.035027 112.380119,51.067596 
z"/>
<path fill="#CECDD2" opacity="1.000000" stroke="none" 
	d="
M133.062485,74.535492 
	C148.424332,74.266899 163.896133,74.376930 179.681030,74.760704 
	C179.094391,75.341003 178.195236,75.912369 177.294769,75.914459 
	C163.477051,75.946548 149.659027,75.922234 135.841522,75.838455 
	C134.949997,75.833046 134.062042,75.235962 133.062485,74.535492 
z"/>
<path fill="#B3B3B8" opacity="1.000000" stroke="none" 
	d="
M38.459007,100.940109 
	C40.355564,100.927048 42.073917,101.403397 43.484116,100.940651 
	C55.417770,97.024696 67.676399,95.233086 80.638580,95.047211 
	C80.177246,95.697845 79.274132,96.657654 78.353287,96.674988 
	C65.515137,96.916695 53.124828,99.465202 41.010902,103.586998 
	C39.958782,103.944992 38.793129,103.969307 36.897099,104.274788 
	C37.442822,102.832001 37.790390,101.913094 38.459007,100.940109 
z"/>
<path fill="#CACACE" opacity="1.000000" stroke="none" 
	d="
M120.726921,65.609627 
	C120.121910,64.004066 119.596519,61.930874 119.074760,59.449463 
	C119.414589,48.486137 119.735291,37.930466 120.119873,27.377125 
	C120.147156,26.628345 120.644180,25.896685 121.279404,25.026281 
	C121.359528,38.311001 121.083031,51.726498 120.726921,65.609627 
z"/>
<path fill="#46454B" opacity="1.000000" stroke="none" 
	d="
M92.046043,180.321533 
	C93.048737,179.343231 94.129280,178.682449 95.596664,178.408737 
	C100.284653,182.537292 104.585793,186.278778 108.886932,190.020264 
	C108.886932,190.020264 108.950867,190.501648 109.081696,191.109070 
	C110.101189,193.701172 111.856895,195.887039 108.102188,196.443512 
	C106.103302,194.138611 104.040039,192.169617 101.746796,189.951157 
	C98.720222,187.421585 95.923645,185.141495 93.127060,182.861404 
	C92.792671,182.120621 92.458282,181.379837 92.046043,180.321533 
z"/>
<path fill="#D9D9DC" opacity="1.000000" stroke="none" 
	d="
M144.830200,200.438110 
	C151.689865,191.501831 150.936066,180.944809 151.256531,170.624908 
	C151.317886,168.649429 151.528824,166.678589 151.894745,164.365692 
	C152.200165,172.401031 152.374115,180.776810 152.329102,189.151382 
	C152.301163,194.351181 148.731949,197.534256 144.830200,200.438110 
z"/>
<path fill="#2F2F35" opacity="1.000000" stroke="none" 
	d="
M97.051407,177.995071 
	C95.807426,175.712784 94.563446,173.430496 93.957306,171.107101 
	C96.392639,172.031723 98.190132,172.997437 100.121140,174.294586 
	C102.760590,177.151489 105.212708,179.737061 107.858261,182.106674 
	C108.114166,182.335861 109.568619,181.226913 110.851486,180.814697 
	C111.429405,182.880310 111.622513,184.870361 111.815613,186.860413 
	C111.425255,187.263489 111.034897,187.666565 110.088448,188.025070 
	C105.372040,184.652008 101.211723,181.323532 97.051407,177.995071 
z"/>
<path fill="#CACACE" opacity="1.000000" stroke="none" 
	d="
M73.570511,147.318817 
	C74.434204,154.425690 75.085175,161.820312 75.546021,169.226761 
	C75.855293,174.197067 75.895157,179.184174 75.912521,184.618103 
	C75.225555,184.353287 74.229279,183.648849 74.205322,182.912766 
	C73.822487,171.148087 73.563843,159.379379 73.570511,147.318817 
z"/>
<path fill="#35343B" opacity="1.000000" stroke="none" 
	d="
M130.118698,188.115265 
	C130.938583,187.751816 131.758484,187.388367 133.389648,186.665268 
	C132.816925,188.665710 132.453140,189.936340 131.990799,191.547119 
	C131.892242,191.887283 131.932175,191.897903 131.606171,191.947815 
	C130.404633,192.865280 129.529083,193.732849 128.653534,194.600403 
	C128.653534,194.600403 128.817139,194.833786 128.423569,194.830078 
	C127.368584,195.558670 126.707176,196.290955 126.045761,197.023254 
	C125.756966,197.204147 125.468170,197.385040 124.780037,197.849899 
	C123.195419,199.388611 122.010147,200.643356 120.824875,201.898102 
	C119.791023,202.819351 118.757179,203.740616 117.415100,204.353394 
	C115.583748,199.206482 120.323959,197.989807 122.533096,194.975281 
	C125.249016,192.574127 127.683853,190.344711 130.118698,188.115265 
z"/>
<path fill="#35343B" opacity="1.000000" stroke="none" 
	d="
M110.005890,204.019318 
	C108.241821,202.742966 106.477753,201.466599 104.324364,199.760651 
	C103.098946,198.765945 102.262848,198.200806 101.426758,197.635651 
	C101.426758,197.635651 101.349747,197.647339 101.267059,197.328522 
	C100.569901,196.570129 99.955444,196.130539 99.340981,195.690948 
	C99.340981,195.690948 99.166534,195.865997 99.129173,195.467606 
	C97.839081,193.978226 96.586357,192.887238 95.164528,191.481506 
	C94.582718,189.952560 94.170021,188.738358 93.757317,187.524155 
	C94.039619,187.362473 94.321915,187.200790 94.604218,187.039108 
	C96.708725,188.708679 98.813225,190.378250 101.118980,192.309662 
	C103.571304,194.336975 105.822388,196.102478 108.183670,198.132812 
	C108.353210,198.579437 108.412552,198.761230 108.398376,199.153473 
	C108.324860,199.363922 108.639290,199.679337 108.639290,199.679337 
	C108.639290,199.679337 109.061981,199.538483 109.395630,199.776428 
	C109.821480,201.349350 109.913681,202.684341 110.005890,204.019318 
z"/>
<path fill="#D9D9DC" opacity="1.000000" stroke="none" 
	d="
M152.604462,160.941391 
	C150.316315,149.803909 154.501068,140.023254 159.850555,130.241638 
	C159.546387,132.408463 159.369461,134.989395 158.308655,137.132904 
	C155.318924,143.173889 153.312332,149.322037 153.888474,156.184494 
	C154.015594,157.698456 153.307266,159.282547 152.604462,160.941391 
z"/>
<path fill="#2F2F35" opacity="1.000000" stroke="none" 
	d="
M124.026672,185.521378 
	C124.026672,185.521378 123.999908,185.500000 124.362717,185.526840 
	C125.220146,185.076218 125.714767,184.598740 126.494797,183.985016 
	C128.154144,182.547958 129.528076,181.247147 130.902008,179.946335 
	C134.599426,178.842361 133.575882,181.304047 132.733017,182.751740 
	C132.057343,183.912247 130.519348,184.570709 128.890991,185.849854 
	C125.881920,188.725800 123.345879,191.203857 120.488182,193.825623 
	C119.262642,194.571136 118.358757,195.172943 117.176865,195.959824 
	C116.997345,194.311752 116.862022,193.069412 116.726700,191.827087 
	C117.509323,191.166946 118.291939,190.506790 119.631203,189.655579 
	C120.453651,189.222626 120.719460,188.980743 121.286240,188.602081 
	C122.400368,187.483978 123.213516,186.502670 124.026672,185.521378 
z"/>
<path fill="#AAABAF" opacity="1.000000" stroke="none" 
	d="
M124.065277,93.880051 
	C130.147003,94.132484 136.228745,94.384911 142.653915,94.856331 
	C138.635880,95.446617 134.274399,95.817917 129.588806,96.216812 
	C130.318207,99.662819 131.050034,103.120354 131.648682,106.981453 
	C130.482712,104.564293 129.652313,101.643227 128.325928,98.968071 
	C127.724358,97.754753 126.139145,97.029129 124.557632,95.811882 
	C124.098503,94.987679 124.081894,94.433861 124.065277,93.880051 
z"/>
<path fill="#CACACE" opacity="1.000000" stroke="none" 
	d="
M87.042953,128.534515 
	C86.897690,129.010269 86.724289,129.018021 86.290947,129.011108 
	C85.558563,121.387596 85.086121,113.778778 84.523651,104.720100 
	C83.159416,106.704811 82.665604,107.423225 81.903595,108.379181 
	C82.138954,107.407890 82.642517,106.199051 83.146072,104.990211 
	C84.268028,105.976349 86.292542,106.900742 86.364929,107.958694 
	C86.822380,114.644829 86.847198,121.360565 87.042953,128.534515 
z"/>
<path fill="#D4D3D8" opacity="1.000000" stroke="none" 
	d="
M106.377213,43.688232 
	C105.486824,35.231892 104.890236,26.481863 104.277649,17.300190 
	C105.145058,18.993961 106.702408,21.093056 106.786636,23.249683 
	C107.048431,29.952904 106.751312,36.677956 106.377213,43.688232 
z"/>
<path fill="#CACACE" opacity="1.000000" stroke="none" 
	d="
M73.787163,121.051376 
	C73.161613,122.368225 72.434097,124.299019 71.145233,124.807808 
	C65.637161,126.982170 66.879753,130.297150 68.975060,134.137817 
	C70.320732,136.604385 71.318550,139.260757 72.504364,142.198029 
	C71.760826,142.213623 70.620911,142.069412 70.282593,141.471573 
	C69.485435,140.062881 69.183121,138.384415 68.482681,136.909073 
	C63.819008,127.085861 63.802090,127.093895 73.787163,121.051376 
z"/>
<path fill="#B3B3B8" opacity="1.000000" stroke="none" 
	d="
M96.758011,178.007019 
	C101.211723,181.323532 105.372040,184.652008 109.837379,188.167542 
	C109.909363,188.855072 109.676315,189.355576 109.165100,189.938171 
	C104.585793,186.278778 100.284653,182.537292 95.932739,178.444244 
	C96.076187,178.068100 96.270401,178.043518 96.758011,178.007019 
z"/>
<path fill="#CACACE" opacity="1.000000" stroke="none" 
	d="
M138.944183,16.371572 
	C133.796707,16.739344 128.516464,16.739344 122.770630,16.739344 
	C122.481941,18.793119 122.236443,20.539591 121.830254,22.690186 
	C119.052895,19.615747 119.759697,15.547121 123.376122,15.332313 
	C128.489883,15.028563 133.663422,15.731290 138.944183,16.371572 
z"/>
<path fill="#BEBEC3" opacity="1.000000" stroke="none" 
	d="
M112.211426,186.869232 
	C111.622513,184.870361 111.429405,182.880310 110.819489,180.807465 
	C110.402695,180.724670 110.337654,180.739197 110.416397,180.506714 
	C110.495132,180.274246 110.140366,179.934937 109.998535,179.651474 
	C108.898094,178.259888 107.939484,177.151749 107.107483,175.803711 
	C107.527397,175.359924 107.820702,175.156067 108.423813,175.117188 
	C110.791580,176.168289 112.849548,177.054398 115.258408,177.949707 
	C116.077194,177.968826 116.545097,177.978745 116.873550,178.297943 
	C116.571449,179.251068 116.408798,179.894928 116.246140,180.538788 
	C112.887863,182.233398 115.411293,184.361160 115.790947,186.719879 
	C114.710709,187.030441 113.658966,186.954254 112.211426,186.869232 
z"/>
<path fill="#B3B3B8" opacity="1.000000" stroke="none" 
	d="
M100.917725,192.047821 
	C98.813225,190.378250 96.708725,188.708679 94.604218,187.039108 
	C94.321915,187.200790 94.039619,187.362473 93.757317,187.524155 
	C94.170021,188.738358 94.582718,189.952560 94.782333,191.570251 
	C94.318024,192.045670 94.066811,192.117599 93.815605,192.189545 
	C90.086395,189.674774 92.984314,186.542984 93.075073,183.269409 
	C95.923645,185.141495 98.720222,187.421585 101.723724,190.236191 
	C101.592995,191.196411 101.255363,191.622116 100.917725,192.047821 
z"/>
<path fill="#9E9DA3" opacity="1.000000" stroke="none" 
	d="
M116.372330,191.948059 
	C116.862022,193.069412 116.997345,194.311752 117.176865,195.959824 
	C118.358757,195.172943 119.262642,194.571136 120.654900,194.136459 
	C121.512856,194.584717 121.882431,194.865875 122.252014,195.147018 
	C120.323959,197.989807 115.583748,199.206482 117.129402,204.438019 
	C116.503044,204.409225 115.281425,203.969055 115.294182,203.568192 
	C115.416306,199.731339 115.747055,195.901123 116.372330,191.948059 
z"/>
<path fill="#D9D9DC" opacity="1.000000" stroke="none" 
	d="
M153.143387,121.327621 
	C150.145630,116.659348 147.134644,111.626259 144.084412,106.217300 
	C144.699142,106.292503 145.505188,106.625862 145.968552,107.224472 
	C146.546112,107.970612 146.815674,108.948776 147.262558,109.803581 
	C149.209656,113.527916 151.172821,117.243835 153.143387,121.327621 
z"/>
<path fill="#CECDD2" opacity="1.000000" stroke="none" 
	d="
M186.679871,99.000328 
	C184.274246,96.058121 181.996429,92.755577 179.519043,88.918900 
	C179.228333,88.234764 179.137207,88.084763 178.960846,87.649139 
	C178.572800,86.852066 178.269958,86.340614 177.967133,85.829163 
	C178.633392,84.826927 179.299637,83.824692 179.901031,82.459778 
	C180.504852,82.637642 181.835831,83.474762 181.745895,83.675598 
	C179.072250,89.646317 184.520935,92.851944 186.277069,97.282326 
	C186.456116,97.734016 186.630920,98.187393 186.679871,99.000328 
z"/>
<path fill="#D4D3D8" opacity="1.000000" stroke="none" 
	d="
M110.231232,204.281601 
	C109.913681,202.684341 109.821480,201.349350 109.357956,199.627167 
	C108.869545,199.046509 108.697960,198.947540 108.471893,198.943039 
	C108.412552,198.761230 108.353210,198.579437 108.203751,197.859741 
	C108.088356,197.141022 108.063080,196.960220 108.037811,196.779434 
	C111.856895,195.887039 110.101189,193.701172 109.158340,191.339447 
	C109.731987,191.086243 110.910355,191.220520 110.908234,191.332367 
	C110.824593,195.737488 110.633606,200.140549 110.231232,204.281601 
z"/>
<path fill="#CACACE" opacity="1.000000" stroke="none" 
	d="
M86.194168,204.244659 
	C86.472862,198.903656 86.945190,193.804733 87.604202,188.273132 
	C89.805481,192.104309 89.041069,201.173416 86.194168,204.244659 
z"/>
<path fill="#C3C3C8" opacity="1.000000" stroke="none" 
	d="
M88.956482,81.400421 
	C83.997131,81.863495 78.912605,81.957741 73.373718,81.911682 
	C78.223335,81.524788 83.527313,81.278191 88.956482,81.400421 
z"/>
<path fill="#AAABAF" opacity="1.000000" stroke="none" 
	d="
M145.080719,95.458176 
	C148.748184,95.251709 152.562851,95.392906 156.687119,95.801971 
	C153.073792,95.981834 149.150848,95.893837 145.080719,95.458176 
z"/>
<path fill="#AAABAF" opacity="1.000000" stroke="none" 
	d="
M160.966202,96.672699 
	C164.151398,96.971626 167.472366,97.601471 170.934875,98.580200 
	C167.751587,98.287262 164.426788,97.645439 160.966202,96.672699 
z"/>
<path fill="#CACACE" opacity="1.000000" stroke="none" 
	d="
M80.680496,110.035736 
	C79.369576,113.095261 77.723076,116.183617 75.766647,119.415810 
	C77.086121,116.394623 78.715523,113.229591 80.680496,110.035736 
z"/>
<path fill="#D4D3D8" opacity="1.000000" stroke="none" 
	d="
M36.919209,64.465271 
	C38.944622,66.823479 40.945415,69.560432 42.981300,72.642929 
	C40.975792,70.273659 38.935192,67.558846 36.919209,64.465271 
z"/>
<path fill="#D9D9DC" opacity="1.000000" stroke="none" 
	d="
M160.245316,126.815002 
	C157.759674,125.514359 155.524628,124.027153 153.274536,122.203987 
	C155.671631,123.454826 158.083755,125.041641 160.245316,126.815002 
z"/>
<path fill="#CACACE" opacity="1.000000" stroke="none" 
	d="
M78.318237,194.857178 
	C80.264641,197.074265 82.098282,199.675415 84.004906,202.614670 
	C82.120415,200.382248 80.162949,197.811752 78.318237,194.857178 
z"/>
<path fill="#C3C3C8" opacity="1.000000" stroke="none" 
	d="
M96.023315,86.921951 
	C94.466934,85.431664 92.910561,83.941376 91.183914,82.165863 
	C91.780922,80.903252 92.548195,79.925873 93.579712,78.767067 
	C93.843956,78.585640 93.988342,78.872520 93.896439,79.344940 
	C94.554970,81.140244 95.305405,82.463127 96.039307,84.177780 
	C96.022949,85.353683 96.023132,86.137817 96.023315,86.921951 
z"/>
<path fill="#CACACE" opacity="1.000000" stroke="none" 
	d="
M184.982040,70.994751 
	C186.403305,68.757690 187.824570,66.520630 189.569702,64.081871 
	C188.792877,66.191414 187.692154,68.502655 186.026733,70.903160 
	C185.462051,70.992432 184.982040,70.994751 184.982040,70.994751 
z"/>
<path fill="#CACACE" opacity="1.000000" stroke="none" 
	d="
M133.339966,48.449905 
	C133.223083,50.259106 132.851105,51.838551 131.832672,53.709473 
	C130.848709,54.000771 130.511200,54.000595 130.173706,54.000420 
	C130.455048,50.921227 130.736404,47.842037 131.198334,44.329117 
	C131.947556,45.336975 132.516205,46.778564 133.339966,48.449905 
z"/>
<path fill="#CACACE" opacity="1.000000" stroke="none" 
	d="
M140.972778,53.713425 
	C139.398727,52.223114 137.876801,50.363842 136.182556,48.220837 
	C140.390518,47.227589 139.953140,50.985783 140.972778,53.713425 
z"/>
<path fill="#CECDD2" opacity="1.000000" stroke="none" 
	d="
M187.157196,103.187805 
	C186.981003,101.993988 186.982895,101.067863 186.810989,99.799606 
	C188.198883,100.295052 189.760590,101.132622 191.322281,101.970200 
	C191.264984,102.317375 191.207672,102.664543 191.150360,103.011719 
	C189.878677,103.159645 188.606979,103.307571 187.157196,103.187805 
z"/>
<path fill="#CECDD2" opacity="1.000000" stroke="none" 
	d="
M93.932655,192.510849 
	C94.066811,192.117599 94.318024,192.045670 94.951439,191.884995 
	C96.586357,192.887238 97.839081,193.978226 99.194321,195.362610 
	C97.547791,194.714722 95.798744,193.773438 93.932655,192.510849 
z"/>
<path fill="#CACACE" opacity="1.000000" stroke="none" 
	d="
M75.569527,187.016708 
	C76.210808,188.416245 76.542839,189.869232 76.858932,191.700333 
	C76.315422,190.409012 75.787849,188.739594 75.569527,187.016708 
z"/>
<path fill="#D9D9DC" opacity="1.000000" stroke="none" 
	d="
M121.205994,201.900528 
	C122.010147,200.643356 123.195419,199.388611 124.708702,198.103455 
	C123.886841,199.349670 122.736969,200.626312 121.205994,201.900528 
z"/>
<path fill="#D4D3D8" opacity="1.000000" stroke="none" 
	d="
M93.946678,50.023228 
	C93.653160,49.675610 93.359642,49.327991 92.990143,48.765854 
	C93.548111,47.771969 94.182045,46.992607 95.232353,46.292881 
	C95.703278,47.597290 95.757820,48.822067 95.198296,50.095367 
	C94.371719,50.103676 94.159203,50.063454 93.946678,50.023228 
z"/>
<path fill="#D9D9DC" opacity="1.000000" stroke="none" 
	d="
M142.334381,203.959854 
	C142.571060,202.951477 143.182404,201.923096 144.046082,200.733627 
	C143.768646,201.694962 143.238861,202.817413 142.334381,203.959854 
z"/>
<path fill="#D9D9DC" opacity="1.000000" stroke="none" 
	d="
M129.012115,194.718903 
	C129.529083,193.732849 130.404633,192.865280 131.591431,191.938171 
	C131.058685,192.864883 130.214676,193.851135 129.012115,194.718903 
z"/>
<path fill="#D4D3D8" opacity="1.000000" stroke="none" 
	d="
M88.946976,49.138733 
	C88.800034,50.060112 88.305809,50.945065 87.522507,51.942184 
	C87.688850,51.070339 88.144272,50.086323 88.946976,49.138733 
z"/>
<path fill="#B3B3B8" opacity="1.000000" stroke="none" 
	d="
M132.694809,35.127014 
	C132.442108,34.268517 132.505493,33.372963 132.823395,32.241611 
	C133.055557,33.033863 133.033218,34.061909 132.694809,35.127014 
z"/>
<path fill="#BEBEC3" opacity="1.000000" stroke="none" 
	d="
M120.985260,188.738861 
	C120.719460,188.980743 120.453651,189.222626 119.922714,189.524155 
	C119.485428,189.248199 119.313263,188.912582 119.026016,188.022903 
	C119.433350,186.881836 119.955757,186.294846 120.750549,186.001892 
	C121.010376,187.110229 120.997818,187.924545 120.985260,188.738861 
z"/>
<path fill="#B3B3B8" opacity="1.000000" stroke="none" 
	d="
M41.765633,97.094406 
	C41.558266,97.957016 41.016830,98.816574 40.166077,99.723488 
	C40.381695,98.877686 40.906631,97.984520 41.765633,97.094406 
z"/>
<path fill="#D9D9DC" opacity="1.000000" stroke="none" 
	d="
M126.420929,197.043106 
	C126.707176,196.290955 127.368584,195.558670 128.320099,194.732086 
	C128.005508,195.446182 127.400803,196.254562 126.420929,197.043106 
z"/>
<path fill="#CECDD2" opacity="1.000000" stroke="none" 
	d="
M101.344482,198.001343 
	C102.262848,198.200806 103.098946,198.765945 104.021942,199.630981 
	C103.159966,199.409622 102.211090,198.888336 101.344482,198.001343 
z"/>
<path fill="#D4D3D8" opacity="1.000000" stroke="none" 
	d="
M36.830551,62.675896 
	C36.977020,63.092159 36.982101,63.283512 36.953545,63.760014 
	C36.445202,63.602852 35.970501,63.160542 35.495804,62.718235 
	C35.893589,62.629154 36.291378,62.540073 36.830551,62.675896 
z"/>
<path fill="#CECDD2" opacity="1.000000" stroke="none" 
	d="
M130.910889,75.551460 
	C130.347580,75.751709 129.849991,75.686119 129.201050,75.411011 
	C129.518570,74.803146 129.987427,74.404785 130.759766,74.102463 
	C131.034363,74.560867 131.005493,74.923241 130.910889,75.551460 
z"/>
<path fill="#CECDD2" opacity="1.000000" stroke="none" 
	d="
M99.280739,196.052582 
	C99.955444,196.130539 100.569901,196.570129 101.267967,197.289597 
	C100.641212,197.184372 99.930855,196.799286 99.280739,196.052582 
z"/>
<path fill="#CECDD2" opacity="1.000000" stroke="none" 
	d="
M184.740662,71.168259 
	C184.982040,70.994751 185.462051,70.992432 185.701569,70.985672 
	C185.466934,71.622391 184.992798,72.265862 184.189453,72.914543 
	C184.073242,72.393768 184.286255,71.867767 184.740662,71.168259 
z"/>
<path fill="#B3B3B8" opacity="1.000000" stroke="none" 
	d="
M134.734863,27.071590 
	C134.606125,26.423161 134.795349,25.669569 135.239975,24.745461 
	C135.347855,25.372107 135.200333,26.169268 134.734863,27.071590 
z"/>
<path fill="#CECDD2" opacity="1.000000" stroke="none" 
	d="
M114.520706,53.476753 
	C114.536621,53.509533 114.504799,53.443974 114.520706,53.476753 
z"/>
<path fill="#CACACE" opacity="1.000000" stroke="none" 
	d="
M71.948166,143.491974 
	C71.975449,143.739471 71.971664,144.017044 71.967880,144.294601 
	C71.922638,144.143875 71.877388,143.993164 71.903542,143.642700 
	C71.974937,143.442963 71.917099,143.522018 71.948166,143.491974 
z"/>
<path fill="#CACACE" opacity="1.000000" stroke="none" 
	d="
M86.564453,155.307510 
	C87.007896,157.426178 87.298470,159.947983 87.310982,162.730087 
	C86.825813,160.563812 86.618698,158.137222 86.564453,155.307510 
z"/>
<path fill="#CACACE" opacity="1.000000" stroke="none" 
	d="
M86.407333,150.309540 
	C86.743896,150.909882 86.963226,151.904800 86.921509,152.998734 
	C86.537010,152.299866 86.413559,151.501999 86.407333,150.309540 
z"/>
<path fill="#F0F0F4" opacity="1.000000" stroke="none" 
	d="
M115.736229,90.792870 
	C116.433678,91.243729 117.131119,91.694588 117.880951,92.473686 
	C117.520683,93.274345 117.108017,93.746773 116.261719,94.706436 
	C115.946060,98.520531 116.064018,101.847374 116.181976,105.174225 
	C116.071663,116.810120 115.961342,128.446014 115.868378,140.866943 
	C115.952850,142.103546 116.019974,142.555130 115.974632,143.363068 
	C115.891518,143.966797 115.920876,144.214172 115.807266,144.630081 
	C115.568199,145.127701 115.661995,145.388428 115.803177,145.709106 
	C115.660675,145.837463 115.680107,146.220428 115.724457,146.670166 
	C115.725586,147.719849 115.682358,148.319794 115.284851,149.057129 
	C114.676636,150.783783 114.157204,152.382828 114.215340,153.960587 
	C114.451500,160.368973 114.864937,166.770828 115.128677,173.112091 
	C115.044350,173.049072 115.188576,173.202454 114.750717,173.144257 
	C113.431580,173.150055 112.550293,173.214066 111.443359,173.030350 
	C110.896927,172.206406 110.576134,171.630188 110.595901,170.980576 
	C111.000229,169.945023 111.063995,168.982849 111.173965,167.635376 
	C111.288940,166.220108 111.357712,165.190109 111.680450,164.105331 
	C111.734085,163.320908 111.533752,162.591278 111.285805,161.404343 
	C111.018295,151.973312 110.798393,142.999573 110.722931,133.628448 
	C110.904243,131.821442 110.941101,130.411850 111.235023,128.742065 
	C111.257362,126.649818 111.022644,124.817726 110.746445,122.576096 
	C110.462593,112.787064 110.220215,103.407578 110.014984,93.721718 
	C109.740494,92.898811 109.428856,92.382278 109.103271,91.532730 
	C109.067749,90.755798 109.046165,90.311890 109.369667,89.938858 
	C111.721909,90.270775 113.729073,90.531822 115.736229,90.792870 
z"/>
<path fill="#CACACE" opacity="1.000000" stroke="none" 
	d="
M115.945679,145.580765 
	C115.661995,145.388428 115.568199,145.127701 115.867172,144.729034 
	C116.070053,144.659454 116.255432,144.795380 116.510063,145.139923 
	C117.317032,145.001282 117.869362,144.518097 118.712639,144.049164 
	C119.585869,144.057251 120.168152,144.051102 120.750435,144.044952 
	C121.099953,151.400665 121.449463,158.756393 121.914223,166.702087 
	C122.324570,167.448166 122.619675,167.604279 122.914780,167.760376 
	C122.914780,167.760376 123.360008,167.719376 123.632401,168.109940 
	C124.447685,169.327835 124.990578,170.155151 125.362183,171.233917 
	C125.086357,171.657791 124.981819,171.830215 124.564819,172.114563 
	C122.391563,173.406158 120.530777,174.585861 118.446030,175.408722 
	C118.699226,172.728958 122.447655,170.748596 118.914230,167.593903 
	C118.618782,161.247482 118.479332,155.309174 118.031784,149.394180 
	C117.933563,148.096024 116.739349,146.880814 116.056526,145.659531 
	C116.063187,145.691650 115.945679,145.580765 115.945679,145.580765 
z"/>
<path fill="#C3C3C8" opacity="1.000000" stroke="none" 
	d="
M124.052521,93.574364 
	C124.081894,94.433861 124.098503,94.987679 124.187149,95.951706 
	C124.246658,105.271637 124.234131,114.181351 123.800659,123.551041 
	C122.683441,123.987190 121.987175,123.963364 121.290916,123.939537 
	C121.224785,117.618584 121.268135,111.293915 121.053314,104.978020 
	C120.914452,100.895538 120.397621,96.825912 120.204453,92.333649 
	C121.369926,91.950912 122.381104,91.985069 123.772476,92.036041 
	C124.115021,92.458130 124.077385,92.863403 124.052521,93.574364 
z"/>
<path fill="#AAABAF" opacity="1.000000" stroke="none" 
	d="
M133.669800,158.059174 
	C134.049332,158.712799 134.077652,159.388611 133.747955,160.428802 
	C131.545166,162.522461 129.700378,164.251770 127.594223,165.974701 
	C126.984337,165.968765 126.635811,165.969208 126.287277,165.969635 
	C128.631042,163.340210 130.974808,160.710800 133.669800,158.059174 
z"/>
<path fill="#B9B9BC" opacity="1.000000" stroke="none" 
	d="
M116.405663,104.752113 
	C116.064018,101.847374 115.946060,98.520531 116.150406,95.020500 
	C116.524933,98.008217 116.577141,101.169106 116.405663,104.752113 
z"/>
<path fill="#9E9DA3" opacity="1.000000" stroke="none" 
	d="
M126.124237,166.347885 
	C126.635811,165.969208 126.984337,165.968765 127.738289,166.263977 
	C127.273628,168.033920 126.403549,169.508194 125.533470,170.982483 
	C124.990578,170.155151 124.447685,169.327835 123.844131,168.181641 
	C124.509392,167.483902 125.235298,167.105011 126.124237,166.347885 
z"/>
<path fill="#B3B3B8" opacity="1.000000" stroke="none" 
	d="
M120.836777,143.653534 
	C120.168152,144.051102 119.585869,144.057251 118.626900,143.641159 
	C118.268135,141.836960 118.286064,140.454987 118.303993,139.073029 
	C121.939270,138.742355 120.794563,141.400269 120.836777,143.653534 
z"/>
<path fill="#24242A" opacity="1.000000" stroke="none" 
	d="
M118.018433,139.168243 
	C118.286064,140.454987 118.268135,141.836960 118.335953,143.626923 
	C117.869362,144.518097 117.317032,145.001282 116.695068,144.841553 
	C116.445999,143.801331 116.266548,143.404022 116.087097,143.006714 
	C116.019974,142.555130 115.952850,142.103546 115.989403,141.321655 
	C116.639687,140.415375 117.186279,139.839417 118.018433,139.168243 
z"/>
<path fill="#AAABAF" opacity="1.000000" stroke="none" 
	d="
M121.271187,124.247749 
	C121.987175,123.963364 122.683441,123.987190 123.728333,124.016617 
	C123.135124,124.200127 122.193291,124.378044 121.271187,124.247749 
z"/>
<path fill="#9E9DA3" opacity="1.000000" stroke="none" 
	d="
M122.704239,167.543976 
	C122.619675,167.604279 122.324570,167.448166 122.048325,167.096069 
	C122.209358,167.042572 122.351524,167.185059 122.704239,167.543976 
z"/>
<path fill="#86868D" opacity="1.000000" stroke="none" 
	d="
M177.645493,85.579819 
	C178.269958,86.340614 178.572800,86.852066 178.707336,87.684052 
	C178.371658,88.037712 178.204300,88.070839 178.036942,88.103966 
	C170.665619,88.045525 163.294281,87.987076 155.127670,87.945114 
	C153.890640,87.988251 153.448914,88.014900 153.007172,88.041550 
	C147.710373,88.041550 142.413589,88.041550 137.116791,88.041550 
	C137.093552,87.076576 137.070312,86.111603 137.047073,85.146629 
	C143.680878,84.941193 150.346695,85.085297 156.991150,85.094116 
	C163.768799,85.103119 170.546295,85.246140 177.645493,85.579819 
z"/>
<path fill="#24242A" opacity="1.000000" stroke="none" 
	d="
M153.043579,88.335464 
	C153.448914,88.014900 153.890640,87.988251 154.661835,88.006866 
	C154.757706,88.558388 154.524124,89.064651 154.290543,89.570915 
	C153.887024,89.257065 153.483490,88.943222 153.043579,88.335464 
z"/>
<path fill="#24242A" opacity="1.000000" stroke="none" 
	d="
M178.188477,88.319778 
	C178.204300,88.070839 178.371658,88.037712 178.792542,87.969666 
	C179.137207,88.084763 179.228333,88.234764 179.315552,88.648010 
	C178.987762,88.786041 178.663895,88.660820 178.188477,88.319778 
z"/>
<path fill="#AAABAF" opacity="1.000000" stroke="none" 
	d="
M93.931549,50.455498 
	C94.159203,50.063454 94.371719,50.103676 94.892960,50.246124 
	C95.201691,50.348354 95.129219,50.401306 95.210571,50.775887 
	C95.720116,51.425514 96.148308,51.700558 96.576492,51.975601 
	C96.745102,54.703777 96.913719,57.431953 97.015839,60.584953 
	C96.504768,61.003059 96.060196,60.996346 95.282021,60.988655 
	C94.604416,57.621044 94.260414,54.254406 93.931549,50.455498 
z"/>
<path fill="#D4D3D8" opacity="1.000000" stroke="none" 
	d="
M96.513733,51.531792 
	C96.148308,51.700558 95.720116,51.425514 95.166077,50.781738 
	C95.510468,50.637997 95.980721,50.862991 96.513733,51.531792 
z"/>
<path fill="#B3B3B8" opacity="1.000000" stroke="none" 
	d="
M130.054901,54.311737 
	C130.511200,54.000595 130.848709,54.000771 131.691925,54.033386 
	C132.103485,56.287243 132.009338,58.508667 131.858643,61.063244 
	C131.500992,61.517651 131.199890,61.638905 130.427826,61.883793 
	C129.949936,59.545971 129.943008,57.084511 130.054901,54.311737 
z"/>
<path fill="#9E9DA3" opacity="1.000000" stroke="none" 
	d="
M118.669991,175.765564 
	C120.530777,174.585861 122.391563,173.406158 124.851166,172.166260 
	C127.919418,170.791687 130.388855,169.477310 132.858292,168.162949 
	C133.160660,168.877716 133.463028,169.592499 133.861206,170.688232 
	C130.601791,173.528076 127.386063,176.218521 123.837425,178.356384 
	C121.807434,179.579330 119.235832,179.903259 116.577118,180.585388 
	C116.408798,179.894928 116.571449,179.251068 116.865868,178.305969 
	C116.997627,178.004715 116.987274,178.021790 117.254776,177.874252 
	C118.002670,177.078796 118.483070,176.430878 118.887192,175.827637 
	C118.810913,175.872314 118.669991,175.765564 118.669991,175.765564 
z"/>
<path fill="#46454B" opacity="1.000000" stroke="none" 
	d="
M133.121552,167.929565 
	C130.388855,169.477310 127.919418,170.791687 125.163635,172.054352 
	C124.981819,171.830215 125.086357,171.657791 125.362183,171.233917 
	C126.403549,169.508194 127.273628,168.033920 127.999649,166.270355 
	C129.700378,164.251770 131.545166,162.522461 133.749649,160.767471 
	C133.867828,163.059921 133.626312,165.378052 133.121552,167.929565 
z"/>
<path fill="#AAABAF" opacity="1.000000" stroke="none" 
	d="
M122.533096,194.975281 
	C121.882431,194.865875 121.512856,194.584717 120.976555,193.992737 
	C123.345879,191.203857 125.881920,188.725800 128.746613,186.186142 
	C129.274139,186.662842 129.472992,187.201126 129.895264,187.927338 
	C127.683853,190.344711 125.249016,192.574127 122.533096,194.975281 
z"/>
<path fill="#CACACE" opacity="1.000000" stroke="none" 
	d="
M130.665558,179.742462 
	C129.528076,181.247147 128.154144,182.547958 126.184258,183.854095 
	C124.980995,183.575958 124.373672,183.292511 123.766342,183.009048 
	C125.603363,181.350204 127.440384,179.691376 129.583466,177.896210 
	C130.069382,178.352768 130.249237,178.945694 130.665558,179.742462 
z"/>
<path fill="#CECDD2" opacity="1.000000" stroke="none" 
	d="
M126.346230,74.433998 
	C125.708153,74.286674 124.946480,73.844460 124.193359,73.020508 
	C124.875481,73.138885 125.549065,73.639000 126.346230,74.433998 
z"/>
<path fill="#33333A" opacity="1.000000" stroke="none" 
	d="
M110.977959,129.002243 
	C110.941101,130.411850 110.904243,131.821442 110.367889,133.633911 
	C108.624725,134.421783 107.381065,134.806793 104.954849,135.557892 
	C111.120422,139.049728 108.366127,143.246490 107.571823,147.235596 
	C106.756615,151.576431 106.553635,155.838135 105.799049,159.999817 
	C105.240875,163.078278 103.964554,166.026505 103.006836,168.678467 
	C102.620720,167.537979 102.235931,166.751785 101.818878,165.675949 
	C100.538391,165.260788 99.290161,165.135239 97.714432,165.039581 
	C96.929604,165.717606 96.472260,166.365738 95.530716,167.042496 
	C94.739342,167.172165 94.432167,167.273193 94.124992,167.374207 
	C94.124992,167.374207 94.124062,167.154938 94.426514,166.691101 
	C94.190872,165.488724 93.652794,164.750198 93.114716,164.011673 
	C93.051910,163.559082 92.989105,163.106506 93.216064,162.199097 
	C93.735664,161.505112 93.891975,161.224930 93.974777,160.903717 
	C93.124458,156.322266 91.743454,151.764954 91.533546,147.154358 
	C91.087311,137.352844 91.152344,127.522682 91.244644,117.706482 
	C91.263374,115.715134 92.326927,113.733612 93.065224,111.396133 
	C94.841751,107.163612 96.605988,103.334183 98.023300,99.380394 
	C98.771973,97.291855 98.927078,95.000977 102.241554,97.191711 
	C102.462715,106.250786 102.506119,114.510529 102.416191,123.116768 
	C102.686340,124.221832 103.089821,124.980400 103.493301,125.738968 
	C104.050270,124.871101 104.607231,124.003235 105.297508,122.737274 
	C105.485947,113.876595 105.541069,105.414001 105.596191,96.951416 
	C105.596191,96.951416 105.812737,96.995926 106.087921,96.927963 
	C106.438423,96.767586 106.596558,96.628593 106.575180,96.590591 
	C106.464867,96.394516 106.308563,96.224327 106.168304,96.045090 
	C106.723015,95.554405 107.277725,95.063721 108.236908,94.257706 
	C109.086868,93.970947 109.532356,93.999519 109.977837,94.028099 
	C110.220215,103.407578 110.462593,112.787064 110.542862,122.809883 
	C110.579811,125.302895 110.778885,127.152573 110.977959,129.002243 
M94.478317,154.595795 
	C94.478317,154.595795 94.402885,154.474991 94.478317,154.595795 
z"/>
<path fill="#C3C3C8" opacity="1.000000" stroke="none" 
	d="
M99.987625,173.963150 
	C98.190132,172.997437 96.392639,172.031723 94.271835,170.927582 
	C93.975235,169.983643 94.001953,169.178116 94.452087,168.446136 
	C95.084373,168.636642 95.293251,168.753601 95.749908,169.069397 
	C96.425911,168.938446 96.854134,168.608688 97.474457,168.238495 
	C97.666557,168.198044 97.999107,167.989334 98.106796,168.211411 
	C98.469131,168.646301 98.746590,168.823364 99.062973,169.336975 
	C99.381927,171.127228 99.684776,172.545197 99.987625,173.963150 
z"/>
<path fill="#24242A" opacity="1.000000" stroke="none" 
	d="
M93.054024,164.392670 
	C93.652794,164.750198 94.190872,165.488724 94.491417,166.602737 
	C93.833694,166.243362 93.413513,165.508514 93.054024,164.392670 
z"/>
<path fill="#24242A" opacity="1.000000" stroke="none" 
	d="
M95.502129,168.870575 
	C95.293251,168.753601 95.084373,168.636642 94.665436,168.228394 
	C94.455376,167.937103 94.204269,167.696854 94.164627,167.535522 
	C94.432167,167.273193 94.739342,167.172165 95.677658,167.172073 
	C96.308807,167.273026 96.602943,167.532700 96.576813,167.508331 
	C96.550674,167.483948 96.576035,167.417084 96.285858,167.764435 
	C95.831169,168.364700 95.666649,168.617630 95.502129,168.870575 
z"/>
<path fill="#24242A" opacity="1.000000" stroke="none" 
	d="
M93.696259,160.952179 
	C93.891975,161.224930 93.735664,161.505112 93.294144,161.862778 
	C93.194206,161.654388 93.305977,161.327515 93.696259,160.952179 
z"/>
<path fill="#24242A" opacity="1.000000" stroke="none" 
	d="
M69.043655,88.264709 
	C70.059494,87.846390 71.135307,87.795776 72.609627,87.818626 
	C73.005821,88.360054 73.003502,88.828026 73.000328,89.646774 
	C71.700859,89.542511 70.402237,89.087463 69.043655,88.264709 
z"/>
<path fill="#24242A" opacity="1.000000" stroke="none" 
	d="
M48.144783,88.292526 
	C48.189762,88.068375 48.342022,87.988831 48.749332,87.945969 
	C48.753613,88.134148 48.502838,88.285645 48.144783,88.292526 
z"/>
<path fill="#CECDD2" opacity="1.000000" stroke="none" 
	d="
M109.024582,89.867989 
	C109.046165,90.311890 109.067749,90.755798 108.778183,91.419678 
	C106.979324,91.089325 105.491631,90.538986 104.003929,89.988647 
	C104.003929,89.988647 103.999390,90.000572 103.973206,89.702011 
	C103.621292,88.943604 103.295555,88.483757 102.969818,88.023911 
	C102.330353,87.724174 101.669052,87.139687 101.056168,87.186668 
	C99.935692,87.272560 98.843849,87.731926 97.398788,88.006393 
	C96.771980,87.789993 96.486450,87.602722 96.112122,87.168701 
	C96.023132,86.137817 96.022949,85.353683 96.456207,84.182541 
	C102.038467,83.613823 106.210190,85.384689 109.024582,89.867989 
z"/>
<path fill="#86868D" opacity="1.000000" stroke="none" 
	d="
M89.217682,86.905762 
	C88.991432,86.743233 89.017288,86.550652 89.118378,86.075348 
	C89.285667,86.153648 89.377724,86.514671 89.217682,86.905762 
z"/>
<path fill="#FFFFFF" opacity="1.000000" stroke="none" 
	d="
M82.131943,63.879997 
	C82.385025,63.972225 82.535019,64.165268 82.685005,64.358307 
	C82.478600,64.401474 82.272194,64.444649 81.947769,64.338623 
	C81.829758,64.189430 82.028854,63.980812 82.131943,63.879997 
z"/>
<path fill="#343339" opacity="1.000000" stroke="none" 
	d="
M109.369659,89.938858 
	C106.210190,85.384689 102.038467,83.613823 96.472748,83.790771 
	C95.305405,82.463127 94.554970,81.140244 93.958832,79.492905 
	C98.922073,78.981461 103.627945,79.902458 107.618042,75.193314 
	C110.965660,71.242432 111.114784,67.206963 111.052185,62.777271 
	C111.013565,60.044659 111.056564,57.729877 115.165054,59.229298 
	C115.660919,61.931080 115.838928,64.510002 116.034775,67.883018 
	C116.683624,70.149666 117.314629,71.622223 117.945633,73.094772 
	C118.737808,73.996170 119.529976,74.897560 120.610565,76.287308 
	C121.545845,77.274414 122.192719,77.773155 122.839592,78.271896 
	C124.296135,78.840630 125.710594,79.667450 127.219749,79.913467 
	C129.153717,80.228722 131.163910,80.076538 133.341095,80.550507 
	C131.910706,81.734299 130.318329,83.035500 128.643234,83.152512 
	C123.245865,83.529556 119.519341,86.584793 115.867371,90.478104 
	C113.729073,90.531822 111.721909,90.270775 109.369659,89.938858 
z"/>
<path fill="#CACACE" opacity="1.000000" stroke="none" 
	d="
M117.972931,72.706474 
	C117.314629,71.622223 116.683624,70.149666 116.149765,68.308685 
	C116.831360,69.399559 117.415794,70.858871 117.972931,72.706474 
z"/>
<path fill="#CACACE" opacity="1.000000" stroke="none" 
	d="
M122.866257,77.918579 
	C122.192719,77.773155 121.545845,77.274414 120.879059,76.426071 
	C121.537056,76.572731 122.214989,77.069000 122.866257,77.918579 
z"/>
<path fill="#CECDD2" opacity="1.000000" stroke="none" 
	d="
M105.289932,96.964447 
	C105.541069,105.414001 105.485947,113.876595 104.964569,122.745560 
	C103.848717,123.024712 103.199120,122.897491 102.549515,122.770271 
	C102.506119,114.510529 102.462715,106.250786 102.480919,97.531052 
	C103.356247,97.039871 104.169968,97.008675 105.289932,96.964447 
z"/>
<path fill="#AAABAF" opacity="1.000000" stroke="none" 
	d="
M104.010925,90.364182 
	C105.491631,90.538986 106.979324,91.089325 108.792114,91.752708 
	C109.428856,92.382278 109.740494,92.898811 110.014984,93.721718 
	C109.532356,93.999519 109.086868,93.970947 108.307312,93.967628 
	C106.654793,92.908493 105.336357,91.824104 104.010925,90.364182 
z"/>
<path fill="#AAABAF" opacity="1.000000" stroke="none" 
	d="
M102.746552,88.194901 
	C103.295555,88.483757 103.621292,88.943604 103.979179,89.699982 
	C103.515320,89.452980 103.019302,88.909439 102.746552,88.194901 
z"/>
<path fill="#24242A" opacity="1.000000" stroke="none" 
	d="
M106.070938,96.276962 
	C106.308563,96.224327 106.464867,96.394516 106.575180,96.590591 
	C106.596558,96.628593 106.438423,96.767586 106.198280,96.934113 
	C106.013504,96.841766 105.993538,96.675301 106.070938,96.276962 
z"/>
<path fill="#B9B9BC" opacity="1.000000" stroke="none" 
	d="
M121.286240,188.602081 
	C120.997818,187.924545 121.010376,187.110229 121.034729,185.882614 
	C121.945038,185.291077 122.843559,185.112839 123.884369,185.227997 
	C123.213516,186.502670 122.400368,187.483978 121.286240,188.602081 
z"/>
<path fill="#B9B9BC" opacity="1.000000" stroke="none" 
	d="
M123.426437,183.439972 
	C124.373672,183.292511 124.980995,183.575958 125.898849,183.990326 
	C125.714767,184.598740 125.220146,185.076218 124.373444,185.540222 
	C123.709747,184.974823 123.398140,184.422852 123.426437,183.439972 
z"/>
<path fill="#AAABAF" opacity="1.000000" stroke="none" 
	d="
M108.102188,196.443512 
	C108.063080,196.960220 108.088356,197.141022 108.093552,197.594910 
	C105.822388,196.102478 103.571304,194.336975 101.118973,192.309662 
	C101.255363,191.622116 101.592995,191.196411 101.953705,190.485672 
	C104.040039,192.169617 106.103302,194.138611 108.102188,196.443512 
z"/>
<path fill="#46454B" opacity="1.000000" stroke="none" 
	d="
M100.121140,174.294586 
	C99.684776,172.545197 99.381927,171.127228 99.114517,168.975647 
	C100.050339,167.483200 100.950737,166.724380 101.851135,165.965576 
	C102.235931,166.751785 102.620720,167.537979 102.956100,169.003113 
	C101.443718,173.609253 105.596039,173.940231 106.980865,176.043625 
	C107.939484,177.151749 108.898094,178.259888 109.797829,179.752472 
	C109.938515,180.337692 110.138084,180.538452 110.337654,180.739197 
	C110.337654,180.739197 110.402695,180.724670 110.434692,180.731903 
	C109.568619,181.226913 108.114166,182.335861 107.858261,182.106674 
	C105.212708,179.737061 102.760590,177.151489 100.121140,174.294586 
z"/>
<path fill="#AAABAF" opacity="1.000000" stroke="none" 
	d="
M108.398376,199.153473 
	C108.697960,198.947540 108.869545,199.046509 109.024315,199.389221 
	C109.061981,199.538483 108.639290,199.679337 108.639290,199.679337 
	C108.639290,199.679337 108.324860,199.363922 108.398376,199.153473 
z"/>
<path fill="#35343B" opacity="1.000000" stroke="none" 
	d="
M118.959457,168.010391 
	C122.447655,170.748596 118.699226,172.728958 118.446030,175.408722 
	C118.669991,175.765564 118.810913,175.872314 118.615616,175.528488 
	C117.796349,175.607315 117.172386,176.029953 116.293732,176.579987 
	C115.661873,177.118408 115.284691,177.529465 114.907509,177.940506 
	C112.849548,177.054398 110.791580,176.168289 108.294083,174.797241 
	C105.782433,172.126572 105.490700,169.931717 107.954483,167.999069 
	C108.655426,168.841034 109.222778,169.407410 109.805740,170.186127 
	C109.782730,170.738327 109.927399,170.956818 110.255341,171.053955 
	C110.576134,171.630188 110.896927,172.206406 111.550812,173.357483 
	C112.985458,173.689056 114.087013,173.445755 115.188576,173.202454 
	C115.188576,173.202454 115.044350,173.049072 115.442337,172.978943 
	C115.939926,171.265869 116.039528,169.622955 116.491638,167.985306 
	C117.549255,167.997192 118.254356,168.003784 118.959457,168.010391 
z"/>
<path fill="#C3C3C8" opacity="1.000000" stroke="none" 
	d="
M107.820900,167.723480 
	C105.490700,169.931717 105.782433,172.126572 107.984276,174.632263 
	C107.820702,175.156067 107.527397,175.359924 107.107483,175.803711 
	C105.596039,173.940231 101.443718,173.609253 102.957428,169.357391 
	C103.964554,166.026505 105.240875,163.078278 105.799049,159.999817 
	C106.553635,155.838135 106.756615,151.576431 107.579056,147.696381 
	C107.914871,154.597885 107.867889,161.160690 107.820900,167.723480 
z"/>
<path fill="#9E9DA3" opacity="1.000000" stroke="none" 
	d="
M115.258408,177.949707 
	C115.284691,177.529465 115.661873,177.118408 116.420090,176.969299 
	C116.863167,177.494751 116.925224,177.758270 116.987274,178.021790 
	C116.987274,178.021790 116.997627,178.004715 117.005310,177.996689 
	C116.545097,177.978745 116.077194,177.968826 115.258408,177.949707 
z"/>
<path fill="#2F2F35" opacity="1.000000" stroke="none" 
	d="
M110.416397,180.506714 
	C110.138084,180.538452 109.938515,180.337692 109.939651,180.035950 
	C110.140366,179.934937 110.495132,180.274246 110.416397,180.506714 
z"/>
<path fill="#24242A" opacity="1.000000" stroke="none" 
	d="
M107.954483,167.999069 
	C107.867889,161.160690 107.914871,154.597885 107.954620,147.574310 
	C108.366127,143.246490 111.120422,139.049728 104.954849,135.557892 
	C107.381065,134.806793 108.624725,134.421783 110.223442,134.031311 
	C110.798393,142.999573 111.018295,151.973312 111.158020,161.782898 
	C111.194069,163.132553 111.310272,163.646332 111.426483,164.160126 
	C111.357712,165.190109 111.288940,166.220108 110.879410,167.751770 
	C110.289146,168.826904 110.039642,169.400345 109.790131,169.973785 
	C109.222778,169.407410 108.655426,168.841034 107.954483,167.999069 
z"/>
<path fill="#B9B9BC" opacity="1.000000" stroke="none" 
	d="
M116.139130,167.980026 
	C116.039528,169.622955 115.939926,171.265869 115.526657,173.041946 
	C114.864937,166.770828 114.451500,160.368973 114.215340,153.960587 
	C114.157204,152.382828 114.676636,150.783783 115.419113,149.513641 
	C115.984825,155.881836 116.061981,161.930923 116.139130,167.980026 
z"/>
<path fill="#24242A" opacity="1.000000" stroke="none" 
	d="
M116.491646,167.985306 
	C116.061981,161.930923 115.984825,155.881836 115.773407,149.376221 
	C115.682358,148.319794 115.725586,147.719849 115.888077,146.566254 
	C116.007339,146.012573 116.049858,145.627411 116.049866,145.627411 
	C116.739349,146.880814 117.933563,148.096024 118.031784,149.394180 
	C118.479332,155.309174 118.618782,161.247482 118.914230,167.593903 
	C118.254356,168.003784 117.549255,167.997192 116.491646,167.985306 
z"/>
<path fill="#AAABAF" opacity="1.000000" stroke="none" 
	d="
M111.235023,128.742065 
	C110.778885,127.152573 110.579811,125.302895 110.584335,123.219437 
	C111.022644,124.817726 111.257362,126.649818 111.235023,128.742065 
z"/>
<path fill="#B9B9BC" opacity="1.000000" stroke="none" 
	d="
M114.750717,173.144257 
	C114.087013,173.445755 112.985458,173.689056 111.776451,173.605225 
	C112.550293,173.214066 113.431580,173.150055 114.750717,173.144257 
z"/>
<path fill="#B9B9BC" opacity="1.000000" stroke="none" 
	d="
M109.805740,170.186127 
	C110.039642,169.400345 110.289146,168.826904 110.833206,168.137070 
	C111.063995,168.982849 111.000229,169.945023 110.595901,170.980576 
	C109.927399,170.956818 109.782730,170.738327 109.805740,170.186127 
z"/>
<path fill="#AAABAF" opacity="1.000000" stroke="none" 
	d="
M111.680450,164.105331 
	C111.310272,163.646332 111.194069,163.132553 111.205643,162.240204 
	C111.533752,162.591278 111.734085,163.320908 111.680450,164.105331 
z"/>
<path fill="#B9B9BC" opacity="1.000000" stroke="none" 
	d="
M116.056519,145.659531 
	C116.049858,145.627411 116.007339,146.012573 115.843719,146.116501 
	C115.680107,146.220428 115.660675,145.837463 115.803177,145.709106 
	C115.945679,145.580765 116.063187,145.691650 116.056519,145.659531 
z"/>
<path fill="#2E2E35" opacity="1.000000" stroke="none" 
	d="
M115.974625,143.363068 
	C116.266548,143.404022 116.445999,143.801331 116.440437,144.497009 
	C116.255432,144.795380 116.070053,144.659454 116.010147,144.560516 
	C115.920876,144.214172 115.891518,143.966797 115.974625,143.363068 
z"/>
<path fill="#BEBEC3" opacity="1.000000" stroke="none" 
	d="
M117.254776,177.874252 
	C116.925224,177.758270 116.863167,177.494751 116.674767,176.841919 
	C117.172386,176.029953 117.796349,175.607315 118.691887,175.483810 
	C118.483070,176.430878 118.002670,177.078796 117.254776,177.874252 
z"/>
<path fill="#919297" opacity="1.000000" stroke="none" 
	d="
M102.416191,123.116768 
	C103.199120,122.897491 103.848717,123.024712 104.831253,123.143646 
	C104.607231,124.003235 104.050270,124.871101 103.493301,125.738968 
	C103.089821,124.980400 102.686340,124.221832 102.416191,123.116768 
z"/>
<path fill="#86868D" opacity="1.000000" stroke="none" 
	d="
M101.818878,165.675949 
	C100.950737,166.724380 100.050339,167.483200 99.098404,168.603333 
	C98.746590,168.823364 98.469131,168.646301 98.117905,167.838074 
	C98.028191,166.498322 98.035057,165.754013 98.041924,165.009689 
	C99.290161,165.135239 100.538391,165.260788 101.818878,165.675949 
z"/>
<path fill="#24242A" opacity="1.000000" stroke="none" 
	d="
M97.714432,165.039581 
	C98.035057,165.754013 98.028191,166.498322 98.010216,167.615997 
	C97.999107,167.989334 97.666557,168.198044 97.262924,168.024704 
	C96.718826,167.708298 96.578354,167.565231 96.458588,167.449554 
	C96.479294,167.476929 96.602943,167.532700 96.602943,167.532700 
	C96.602943,167.532700 96.308807,167.273026 96.161865,167.143448 
	C96.472260,166.365738 96.929604,165.717606 97.714432,165.039581 
z"/>
<path fill="#24242A" opacity="1.000000" stroke="none" 
	d="
M94.440598,154.535400 
	C94.402885,154.474991 94.478317,154.595795 94.440598,154.535400 
z"/>
<path fill="#24242A" opacity="1.000000" stroke="none" 
	d="
M97.070831,168.065155 
	C96.854134,168.608688 96.425911,168.938446 95.749908,169.069397 
	C95.666649,168.617630 95.831169,168.364700 96.251801,167.784256 
	C96.507919,167.456741 96.437881,167.422165 96.437881,167.422165 
	C96.578354,167.565231 96.718826,167.708298 97.070831,168.065155 
z"/>
<path fill="#B3B3B8" opacity="1.000000" stroke="none" 
	d="
M96.458588,167.449554 
	C96.437881,167.422165 96.507919,167.456741 96.541977,167.436920 
	C96.576035,167.417084 96.550674,167.483948 96.576813,167.508331 
	C96.602943,167.532700 96.479294,167.476929 96.458588,167.449554 
z"/>
</svg>